<svg width="2935" height="1117" viewBox="0 0 2935 1117" fill="none" xmlns="http://www.w3.org/2000/svg">
<path opacity="0.4" fill-rule="evenodd" clip-rule="evenodd" d="M0 0L69.0047 10.0631C138.009 23.4805 280.619 43.6066 418.629 117.402C561.238 194.553 699.248 322.018 837.257 311.955C979.867 298.538 1117.88 150.946 1255.89 127.465C1398.5 107.339 1536.5 214.679 1679.11 268.348C1817.12 322.018 1955.13 322.018 2097.74 311.955C2235.75 298.538 2373.76 278.411 2516.37 244.868C2654.38 214.679 2796.99 171.072 2866 150.946L2935 127.465V1117H2866C2796.99 1117 2654.38 1117 2516.37 1117C2373.76 1117 2235.75 1117 2097.74 1117C1955.13 1117 1817.12 1117 1679.11 1117C1536.5 1117 1398.5 1117 1255.89 1117C1117.88 1117 979.867 1117 837.257 1117C699.248 1117 561.238 1117 418.629 1117C280.619 1117 138.009 1117 69.0047 1117H0V0Z" fill="#E7E4E7"/>
</svg>
