<svg width="1757" height="497" viewBox="0 0 1757 497" fill="none" xmlns="http://www.w3.org/2000/svg">
<path d="M0 27.9155V497H1757V5.8504C1738.66 2.11887 1720.16 0 1701.4 0C1646.48 0 1589 21.0619 1530.51 42.4934C1492.46 56.4365 1453.98 70.5361 1415.51 79.094C1359.14 92.5939 1300.09 92.304 1241.69 92.0173C1206.16 91.8429 1170.87 91.6697 1136.59 94.6027C1046.48 100.329 962.316 125.874 873.123 152.945C865.685 155.203 858.212 157.471 850.698 159.739C760.05 187.654 662.429 217.121 564.808 232.629C474.16 246.587 376.539 246.587 285.89 209.367C200.379 178.121 120.218 118.317 68.8401 79.9868C61.5641 74.5586 54.8655 69.5611 48.8106 65.1363L0 27.9155Z" fill="url(#paint0_linear_79_4)" fill-opacity="0.32"/>
<defs>
<linearGradient id="paint0_linear_79_4" x1="1550" y1="-220" x2="482.015" y2="1161.44" gradientUnits="userSpaceOnUse">
<stop stop-color="#E4E2E3"/>
<stop offset="0.354167" stop-color="#ECE8EC"/>
</linearGradient>
</defs>
</svg>
