<svg width="233" height="61" viewBox="0 0 233 61" fill="none" xmlns="http://www.w3.org/2000/svg">
<path d="M62.3892 21.8163C62.4315 21.8163 62.4527 21.8862 62.4527 22.0261C62.4527 22.1659 62.4315 22.2359 62.3892 22.2359H56.7382C56.2726 22.2359 55.4049 21.2802 54.135 19.369C52.8651 17.4344 51.3307 14.7423 49.5317 11.2928C49.3624 11.3161 49.119 11.3277 48.8015 11.3277C47.9761 11.3277 47.3941 11.3161 47.0554 11.2928V19.4039C47.0554 20.1265 47.1083 20.6509 47.2142 20.9772C47.32 21.3035 47.5211 21.525 47.8174 21.6415C48.1348 21.758 48.6322 21.8163 49.3095 21.8163C49.3518 21.8163 49.373 21.8862 49.373 22.0261C49.373 22.1659 49.3518 22.2359 49.3095 22.2359C48.611 22.2359 48.0607 22.2242 47.6586 22.2009L45.2459 22.1659L42.9283 22.2009C42.5051 22.2242 41.9336 22.2359 41.214 22.2359C41.1505 22.2359 41.1188 22.1659 41.1188 22.0261C41.1188 21.8862 41.1505 21.8163 41.214 21.8163C41.8913 21.8163 42.3781 21.758 42.6744 21.6415C42.9919 21.525 43.2035 21.3035 43.3093 20.9772C43.4363 20.6276 43.4998 20.1032 43.4998 19.4039V3.21652C43.4998 2.51728 43.4469 2.0045 43.3411 1.67819C43.2353 1.35188 43.0236 1.13046 42.7061 1.01392C42.3887 0.874071 41.9019 0.804129 41.2458 0.804129C41.2034 0.804129 41.1823 0.734209 41.1823 0.594361C41.1823 0.454513 41.2034 0.384593 41.2458 0.384593L42.9283 0.419558C43.9019 0.466174 44.6744 0.489488 45.2459 0.489488C45.8597 0.489488 46.5369 0.454517 47.2777 0.384593C47.5105 0.361285 47.8068 0.337971 48.1666 0.314663C48.5475 0.291355 48.992 0.279698 49.5 0.279698C51.4471 0.279698 52.9498 0.675948 54.008 1.46842C55.0874 2.23759 55.6271 3.3214 55.6271 4.71988C55.6271 5.79205 55.3308 6.8176 54.7382 7.79654C54.1456 8.77547 53.3731 9.56795 52.4207 10.174C54.1138 13.1108 55.5318 15.4066 56.6747 17.0615C57.8388 18.7163 58.8653 19.9284 59.7542 20.6975C60.6643 21.4434 61.5426 21.8163 62.3892 21.8163ZM47.0554 10.2789C47.5634 10.3721 48.1772 10.4187 48.8967 10.4187C49.6587 10.4187 50.2619 10.2905 50.7063 10.0341C51.1508 9.77771 51.4683 9.33488 51.6587 8.70556C51.8704 8.07625 51.9762 7.19053 51.9762 6.04844C51.9762 4.13718 51.7222 2.82027 51.2143 2.09772C50.7063 1.37518 49.9762 1.01392 49.0237 1.01392C48.3041 1.01392 47.7962 1.18873 47.4999 1.53835C47.2036 1.88797 47.0554 2.47067 47.0554 3.28645V10.2789ZM77.826 16.6769C77.826 16.6303 77.8684 16.607 77.9524 16.607C78.0166 16.607 78.0695 16.6303 78.1111 16.6769C78.1753 16.7002 78.207 16.7235 78.207 16.7468C77.9954 18.5648 77.8895 20.2197 77.8895 21.7114C77.8895 21.8979 77.8578 22.0377 77.7943 22.131C77.7308 22.2009 77.6039 22.2359 77.4134 22.2359H63.3813C63.3178 22.2359 63.286 22.1659 63.286 22.0261C63.286 21.8862 63.3178 21.8163 63.3813 21.8163C64.0585 21.8163 64.5453 21.758 64.8416 21.6415C65.1591 21.525 65.3707 21.3035 65.4765 20.9772C65.5824 20.6276 65.6353 20.1032 65.6353 19.4039V3.21652C65.6353 2.51728 65.5824 2.0045 65.4765 1.67819C65.3707 1.35188 65.1591 1.13046 64.8416 1.01392C64.5242 0.874071 64.0374 0.804129 63.3813 0.804129C63.3178 0.804129 63.286 0.734209 63.286 0.594361C63.286 0.454513 63.3178 0.384593 63.3813 0.384593H76.8419C77.0536 0.384593 77.1594 0.489484 77.1594 0.699256L77.2229 5.34921C77.2229 5.39582 77.1594 5.43077 77.0324 5.45408C76.9266 5.47739 76.8631 5.4541 76.8419 5.38417C76.5033 4.03231 75.9319 3.03005 75.1276 2.37742C74.3233 1.7248 73.2651 1.39849 71.9529 1.39849H71.0005C70.3656 1.39849 69.9 1.54999 69.6037 1.85299C69.3074 2.156 69.1592 2.62217 69.1592 3.25148V10.3837H71.7942C73.0217 10.3837 73.9635 10.1507 74.6196 9.68449C75.2757 9.21833 75.6038 8.5657 75.6038 7.72661C75.6038 7.65668 75.6567 7.62174 75.7625 7.62174C75.8895 7.62174 75.953 7.65668 75.953 7.72661L75.9213 10.8732L75.953 12.5514C75.9953 13.3439 76.0165 13.9732 76.0165 14.4393C76.0165 14.4859 75.953 14.5092 75.826 14.5092C75.699 14.5092 75.6356 14.4859 75.6356 14.4393C75.6356 13.4837 75.2969 12.7378 74.6196 12.2018C73.9635 11.6424 73.0111 11.3627 71.7624 11.3627H69.1592V19.2641C69.1592 19.94 69.2756 20.4411 69.5084 20.7675C69.7412 21.0938 70.1116 21.2569 70.6195 21.2569H71.6672C73.318 21.2569 74.6408 20.884 75.6356 20.1381C76.6303 19.3923 77.3604 18.2385 77.826 16.6769ZM100.708 0.384593C100.771 0.384593 100.803 0.454513 100.803 0.594361C100.803 0.734209 100.771 0.804129 100.708 0.804129C99.9457 0.804129 99.2155 1.17707 98.5171 1.92292C97.8187 2.66878 97.2578 3.67102 96.8345 4.92965L90.9613 22.2009C90.9402 22.2941 90.8238 22.3408 90.6121 22.3408C90.4005 22.3408 90.284 22.2941 90.2629 22.2009L82.1674 3.28645C81.7865 2.44736 81.4055 1.82969 81.0245 1.43346C80.6436 1.01391 80.2203 0.804129 79.7547 0.804129C79.6912 0.804129 79.6595 0.734209 79.6595 0.594361C79.6595 0.454513 79.6912 0.384593 79.7547 0.384593C80.0722 0.384593 80.2944 0.39625 80.4214 0.419558C80.8447 0.466174 81.395 0.489488 82.0722 0.489488C83.8924 0.489488 85.4374 0.466174 86.7073 0.419558C87.0459 0.39625 87.4692 0.384593 87.9771 0.384593C88.0406 0.384593 88.0723 0.454513 88.0723 0.594361C88.0723 0.734209 88.0406 0.804129 87.9771 0.804129C87.3422 0.804129 86.8448 0.955648 86.485 1.25865C86.1464 1.53835 85.9771 1.94623 85.9771 2.48232C85.9771 2.87855 86.0935 3.35636 86.3263 3.91575L91.8185 16.8167L95.9456 4.82478C96.1572 4.17215 96.2631 3.61275 96.2631 3.14659C96.2631 2.42404 96.062 1.853 95.6599 1.43346C95.2789 1.01391 94.718 0.804129 93.9773 0.804129C93.9138 0.804129 93.882 0.734209 93.882 0.594361C93.882 0.454513 93.9138 0.384593 93.9773 0.384593L95.5329 0.419558C96.4218 0.466174 97.2154 0.489488 97.9139 0.489488C98.316 0.489488 98.8134 0.466174 99.406 0.419558L100.708 0.384593ZM116.3 16.6769C116.3 16.6303 116.342 16.607 116.427 16.607C116.49 16.607 116.543 16.6303 116.586 16.6769C116.649 16.7002 116.681 16.7235 116.681 16.7468C116.469 18.5648 116.363 20.2197 116.363 21.7114C116.363 21.8979 116.332 22.0377 116.268 22.131C116.205 22.2009 116.078 22.2359 115.887 22.2359H101.855C101.792 22.2359 101.76 22.1659 101.76 22.0261C101.76 21.8862 101.792 21.8163 101.855 21.8163C102.532 21.8163 103.019 21.758 103.315 21.6415C103.633 21.525 103.845 21.3035 103.95 20.9772C104.056 20.6276 104.109 20.1032 104.109 19.4039V3.21652C104.109 2.51728 104.056 2.0045 103.95 1.67819C103.845 1.35188 103.633 1.13046 103.315 1.01392C102.998 0.874071 102.511 0.804129 101.855 0.804129C101.792 0.804129 101.76 0.734209 101.76 0.594361C101.76 0.454513 101.792 0.384593 101.855 0.384593H115.316C115.527 0.384593 115.633 0.489484 115.633 0.699256L115.697 5.34921C115.697 5.39582 115.633 5.43077 115.506 5.45408C115.4 5.47739 115.337 5.4541 115.316 5.38417C114.977 4.03231 114.406 3.03005 113.601 2.37742C112.797 1.7248 111.739 1.39849 110.427 1.39849H109.474C108.839 1.39849 108.374 1.54999 108.077 1.85299C107.781 2.156 107.633 2.62217 107.633 3.25148V10.3837H110.268C111.496 10.3837 112.437 10.1507 113.093 9.68449C113.75 9.21833 114.078 8.5657 114.078 7.72661C114.078 7.65668 114.131 7.62174 114.236 7.62174C114.363 7.62174 114.427 7.65668 114.427 7.72661L114.395 10.8732L114.427 12.5514C114.469 13.3439 114.49 13.9732 114.49 14.4393C114.49 14.4859 114.427 14.5092 114.3 14.5092C114.173 14.5092 114.109 14.4859 114.109 14.4393C114.109 13.4837 113.771 12.7378 113.093 12.2018C112.437 11.6424 111.485 11.3627 110.236 11.3627H107.633V19.2641C107.633 19.94 107.749 20.4411 107.982 20.7675C108.215 21.0938 108.585 21.2569 109.093 21.2569H110.141C111.792 21.2569 113.115 20.884 114.109 20.1381C115.104 19.3923 115.834 18.2385 116.3 16.6769ZM124.833 19.2641C124.833 19.8701 124.875 20.3129 124.96 20.5926C125.044 20.849 125.203 21.0238 125.436 21.1171C125.69 21.2103 126.092 21.2569 126.642 21.2569H127.722C129.372 21.2569 130.801 20.7791 132.007 19.8235C133.214 18.8445 134.018 17.5276 134.42 15.8728C134.42 15.8262 134.462 15.8028 134.547 15.8028C134.589 15.8028 134.632 15.8262 134.674 15.8728C134.738 15.8961 134.769 15.9194 134.769 15.9427C134.579 18.2502 134.484 20.1731 134.484 21.7114C134.484 21.8979 134.441 22.0377 134.357 22.131C134.293 22.2009 134.177 22.2359 134.007 22.2359H119.023C118.981 22.2359 118.959 22.1659 118.959 22.0261C118.959 21.8862 118.981 21.8163 119.023 21.8163C119.7 21.8163 120.187 21.758 120.483 21.6415C120.801 21.525 121.012 21.3035 121.118 20.9772C121.245 20.6276 121.309 20.1032 121.309 19.4039V3.21652C121.309 2.51728 121.245 2.0045 121.118 1.67819C121.012 1.35188 120.801 1.13046 120.483 1.01392C120.166 0.874071 119.679 0.804129 119.023 0.804129C118.981 0.804129 118.959 0.734209 118.959 0.594361C118.959 0.454513 118.981 0.384593 119.023 0.384593L120.642 0.419558C121.616 0.466174 122.42 0.489488 123.055 0.489488C123.69 0.489488 124.494 0.466174 125.468 0.419558L127.087 0.384593C127.15 0.384593 127.182 0.454513 127.182 0.594361C127.182 0.734209 127.15 0.804129 127.087 0.804129C126.43 0.804129 125.944 0.874071 125.626 1.01392C125.309 1.13046 125.097 1.36353 124.991 1.71315C124.885 2.03947 124.833 2.55224 124.833 3.25148V19.2641ZM140.894 3.91575C140.894 4.75484 141.084 5.50071 141.465 6.15334C141.867 6.80596 142.354 7.377 142.926 7.86647C143.497 8.35594 144.27 8.95029 145.243 9.64953C146.301 10.3954 147.148 11.048 147.783 11.6074C148.418 12.1668 148.958 12.8544 149.402 13.6702C149.846 14.4626 150.069 15.3833 150.069 16.4322C150.069 17.6442 149.772 18.728 149.18 19.6836C148.587 20.616 147.762 21.3501 146.703 21.8862C145.666 22.399 144.502 22.6554 143.211 22.6554C142.259 22.6554 141.264 22.5156 140.227 22.2359C139.19 21.9329 138.492 21.6065 138.132 21.2569C138.026 21.1637 137.941 21.0821 137.878 21.0122C137.836 20.919 137.814 20.7791 137.814 20.5926L137.719 15.0337V14.9987C137.719 14.9055 137.772 14.8589 137.878 14.8589C137.984 14.8356 138.047 14.8705 138.068 14.9637C138.703 16.3855 139.254 17.5393 139.719 18.425C140.206 19.3107 140.809 20.0915 141.529 20.7675C142.27 21.4434 143.106 21.7814 144.037 21.7814C144.883 21.7814 145.582 21.5366 146.132 21.0472C146.682 20.5344 146.957 19.672 146.957 18.46C146.957 17.4344 146.746 16.537 146.323 15.7679C145.92 14.9987 145.423 14.3461 144.83 13.81C144.238 13.2739 143.423 12.6329 142.386 11.8871C141.37 11.1645 140.576 10.5469 140.005 10.0341C139.455 9.52132 138.978 8.90368 138.576 8.18113C138.174 7.45858 137.973 6.60784 137.973 5.62891C137.973 4.39358 138.291 3.35637 138.926 2.51728C139.582 1.65489 140.418 1.02556 141.434 0.629326C142.449 0.209782 143.518 0 144.64 0C145.381 0 146.132 0.0815992 146.894 0.244755C147.656 0.384603 148.27 0.559414 148.735 0.769186C148.926 0.862419 149.053 0.967287 149.116 1.08383C149.18 1.17706 149.211 1.30526 149.211 1.46842V6.60784C149.211 6.67776 149.159 6.73602 149.053 6.78264C148.947 6.80595 148.883 6.78263 148.862 6.71271L148.608 6.04844C148.079 4.58004 147.455 3.33307 146.735 2.30752C146.037 1.28196 145.053 0.769186 143.783 0.769186C142.936 0.769186 142.238 1.03721 141.688 1.57329C141.158 2.10938 140.894 2.8902 140.894 3.91575ZM154.185 0.384593C154.925 0.384593 155.497 0.699244 155.899 1.32856C156.322 1.95788 156.534 2.85525 156.534 4.02065C156.534 5.06951 156.322 6.04843 155.899 6.95744C155.476 7.84315 154.841 8.74052 153.994 9.64953C153.973 9.67284 153.941 9.68449 153.899 9.68449C153.835 9.68449 153.782 9.64952 153.74 9.5796C153.698 9.50968 153.698 9.45141 153.74 9.4048C154.777 8.2394 155.296 6.86422 155.296 5.27928C155.296 4.62665 155.19 4.14885 154.978 3.84584C154.788 4.19546 154.396 4.37025 153.804 4.37025C153.296 4.37025 152.883 4.19546 152.565 3.84584C152.269 3.47292 152.121 2.99509 152.121 2.41239C152.121 1.78307 152.301 1.29361 152.661 0.94399C153.042 0.571061 153.55 0.384593 154.185 0.384593ZM158.368 21.7114C159.32 20.4586 160.233 19.2787 161.106 18.1715C162.72 16.1321 163.95 14.5151 164.797 13.3205C165.643 12.126 166.331 10.9606 166.86 9.82433C167.416 8.65893 167.693 7.58093 167.693 6.59034C167.693 5.51235 167.402 4.5509 166.82 3.70598C166.238 2.83193 165.418 2.39492 164.36 2.39492C163.196 2.39492 162.244 2.90476 161.503 3.92449C160.762 4.91508 159.995 6.40098 159.201 8.38216C159.201 8.44043 159.148 8.46957 159.042 8.46957C158.963 8.46957 158.884 8.455 158.804 8.42586C158.725 8.36759 158.699 8.32387 158.725 8.29474L160.471 0.821623C160.471 0.763353 160.524 0.734221 160.63 0.734221C160.709 0.734221 160.775 0.763353 160.828 0.821623C160.908 0.850758 160.934 0.879889 160.908 0.909024C160.881 1.0547 160.868 1.22951 160.868 1.43346C160.868 1.95789 161.066 2.22009 161.463 2.22009C161.781 2.22009 162.23 2.10357 162.812 1.87049C163.606 1.63741 164.228 1.47716 164.678 1.38975C165.154 1.27321 165.696 1.21495 166.305 1.21495C167.998 1.21495 169.36 1.7248 170.392 2.74452C171.424 3.73511 171.94 5.03162 171.94 6.63404C171.94 7.62464 171.728 8.52782 171.305 9.3436C170.881 10.1302 170.352 10.8295 169.717 11.4413C169.109 12.0532 168.236 12.8398 167.098 13.8013C166.066 14.6462 165.18 15.4183 164.439 16.1175C163.699 16.8167 163.011 17.5888 162.376 18.4337C162.217 18.6377 162.27 18.7397 162.535 18.7397C166 18.7397 168.395 18.6959 169.717 18.6085C171.067 18.5211 171.966 18.3463 172.416 18.0841C172.866 17.7928 173.196 17.2829 173.408 16.5545C173.434 16.4671 173.514 16.4234 173.646 16.4234C173.805 16.4234 173.884 16.4671 173.884 16.5545L173.487 21.7551C173.487 21.8717 173.448 21.9882 173.368 22.1048C173.315 22.1922 173.236 22.2359 173.13 22.2359H158.646C158.54 22.2359 158.447 22.1776 158.368 22.0611C158.315 21.9445 158.315 21.828 158.368 21.7114ZM176.194 21.7114C177.147 20.4586 178.059 19.2787 178.932 18.1715C180.546 16.1321 181.776 14.5151 182.623 13.3205C183.47 12.126 184.158 10.9606 184.687 9.82433C185.242 8.65893 185.52 7.58093 185.52 6.59034C185.52 5.51235 185.229 4.5509 184.647 3.70598C184.065 2.83193 183.245 2.39492 182.187 2.39492C181.022 2.39492 180.07 2.90476 179.329 3.92449C178.589 4.91508 177.821 6.40098 177.028 8.38216C177.028 8.44043 176.975 8.46957 176.869 8.46957C176.79 8.46957 176.71 8.455 176.631 8.42586C176.551 8.36759 176.525 8.32387 176.551 8.29474L178.298 0.821623C178.298 0.763353 178.35 0.734221 178.456 0.734221C178.536 0.734221 178.602 0.763353 178.655 0.821623C178.734 0.850758 178.761 0.879889 178.734 0.909024C178.708 1.0547 178.694 1.22951 178.694 1.43346C178.694 1.95789 178.893 2.22009 179.29 2.22009C179.607 2.22009 180.057 2.10357 180.639 1.87049C181.433 1.63741 182.054 1.47716 182.504 1.38975C182.98 1.27321 183.523 1.21495 184.131 1.21495C185.824 1.21495 187.187 1.7248 188.218 2.74452C189.25 3.73511 189.766 5.03162 189.766 6.63404C189.766 7.62464 189.554 8.52782 189.131 9.3436C188.708 10.1302 188.179 10.8295 187.544 11.4413C186.935 12.0532 186.062 12.8398 184.925 13.8013C183.893 14.6462 183.007 15.4183 182.266 16.1175C181.525 16.8167 180.837 17.5888 180.202 18.4337C180.044 18.6377 180.097 18.7397 180.361 18.7397C183.827 18.7397 186.221 18.6959 187.544 18.6085C188.893 18.5211 189.793 18.3463 190.242 18.0841C190.692 17.7928 191.023 17.2829 191.234 16.5545C191.261 16.4671 191.34 16.4234 191.473 16.4234C191.631 16.4234 191.711 16.4671 191.711 16.5545L191.314 21.7551C191.314 21.8717 191.274 21.9882 191.195 22.1048C191.142 22.1922 191.062 22.2359 190.957 22.2359H176.472C176.366 22.2359 176.274 22.1776 176.194 22.0611C176.141 21.9445 176.141 21.828 176.194 21.7114ZM9.34944 38.1377C10.0869 38.1377 10.8574 38.2113 11.6617 38.3592C12.4659 38.4881 13.0942 38.6636 13.5466 38.8851C13.6974 38.9404 13.7894 39.014 13.8231 39.1065C13.8734 39.18 13.9151 39.3184 13.9488 39.5217L14.2504 43.3689C14.2504 43.4243 14.2087 43.4614 14.1247 43.4796C14.0407 43.4979 13.9904 43.4702 13.9739 43.3966C13.4044 41.9391 12.6418 40.8131 11.6868 40.0199C10.7317 39.2267 9.6259 38.8297 8.36926 38.8297C6.71048 38.8297 5.42871 39.5035 4.52392 40.8502C3.61914 42.197 3.16676 44.0055 3.16676 46.2752C3.16676 47.973 3.40949 49.523 3.89561 50.9251C4.39827 52.3272 5.09339 53.4438 5.98164 54.2742C6.88642 55.0863 7.90827 55.492 9.04785 55.492C10.12 55.492 11.075 55.1045 11.913 54.3295C12.7675 53.5363 13.5301 52.3367 14.2001 50.7314C14.2167 50.6578 14.2669 50.6301 14.3509 50.6483C14.4514 50.6665 14.5017 50.7037 14.5017 50.759L14.1247 54.5233C14.091 54.7447 14.0493 54.8926 13.999 54.9661C13.9653 55.0215 13.8734 55.0863 13.7226 55.1599C12.2311 55.7688 10.698 56.0733 9.12325 56.0733C7.07889 56.0733 5.36986 55.6304 3.99615 54.7447C2.62244 53.8408 1.60851 52.706 0.955051 51.3403C0.31813 49.9564 0 48.5171 0 47.0225C0 45.2693 0.427272 43.7193 1.28179 42.3725C2.15285 41.0258 3.30102 39.9827 4.725 39.2449C6.16617 38.507 7.7072 38.1377 9.34944 38.1377ZM19.0494 47.1055C19.0157 47.5855 18.9992 47.9818 18.9992 48.2957C18.9992 50.3439 19.4092 51.9769 20.2307 53.1947C21.0515 54.4126 22.2076 55.0215 23.699 55.0215C24.1177 55.0215 24.545 54.9567 24.9808 54.8277C25.416 54.6988 25.8016 54.5051 26.1369 54.2465H26.1621C26.2123 54.2465 26.254 54.2837 26.2877 54.3572C26.338 54.4126 26.3459 54.4679 26.3128 54.5233C25.1395 55.5569 23.8498 56.0733 22.4424 56.0733C21.1355 56.0733 20.021 55.7688 19.0997 55.1599C18.1949 54.5327 17.5077 53.7206 17.0388 52.7242C16.5692 51.7278 16.3351 50.6483 16.3351 49.4858C16.3351 48.2126 16.6195 47.0501 17.1896 45.9984C17.759 44.9284 18.5296 44.0886 19.5018 43.4796C20.4734 42.8525 21.529 42.5386 22.6686 42.5386C23.908 42.5386 24.8551 42.8984 25.5086 43.618C26.162 44.3377 26.4888 45.2787 26.4888 46.4412C26.4888 46.6809 26.4637 46.8469 26.4134 46.9394C26.3797 47.0319 26.3042 47.0778 26.1872 47.0778L19.0494 47.1055ZM21.814 43.2029C21.1103 43.2029 20.5237 43.4979 20.0548 44.0886C19.6024 44.6793 19.2922 45.5002 19.1248 46.5519L23.7996 46.4689C23.7658 44.2918 23.1038 43.2029 21.814 43.2029ZM31.7197 53.3885C31.7197 53.8867 31.7614 54.256 31.8454 54.4956C31.9287 54.7352 32.0881 54.9108 32.3229 55.0215C32.5743 55.114 32.9427 55.1599 33.4288 55.1599H33.7052C34.6603 55.1599 35.5313 54.8183 36.3191 54.1358C37.1061 53.4533 37.6842 52.5304 38.0532 51.368C38.0698 51.3308 38.12 51.3221 38.204 51.3403C38.3046 51.3403 38.3548 51.3585 38.3548 51.3956C38.2371 52.3738 38.1789 53.6835 38.1789 55.3259C38.1789 55.4738 38.1452 55.5845 38.0784 55.6581C38.0281 55.7134 37.9276 55.7411 37.7768 55.7411H27.7236C27.6899 55.7411 27.6733 55.6858 27.6733 55.5751C27.6733 55.4643 27.6899 55.409 27.7236 55.409C28.1588 55.409 28.4776 55.3631 28.6787 55.2706C28.8797 55.1781 29.0133 55.0033 29.0808 54.7447C29.1641 54.4679 29.2064 54.0527 29.2064 53.4992V45.0296C29.2064 44.4761 29.1641 44.0704 29.0808 43.8118C29.0133 43.5532 28.8797 43.3784 28.6787 43.2859C28.4776 43.1752 28.1588 43.1198 27.7236 43.1198C27.6899 43.1198 27.6733 43.0645 27.6733 42.9538C27.6733 42.8431 27.6899 42.7877 27.7236 42.7877L28.9551 42.8154C29.6588 42.8525 30.2032 42.8707 30.5888 42.8707C31.024 42.8707 31.5941 42.8525 32.2978 42.8154L33.4539 42.7877C33.5042 42.7877 33.5293 42.8431 33.5293 42.9538C33.5293 43.0645 33.5042 43.1198 33.4539 43.1198C32.9512 43.1198 32.5743 43.1752 32.3229 43.2859C32.0881 43.3784 31.9287 43.5627 31.8454 43.8395C31.7614 44.098 31.7197 44.5037 31.7197 45.0573V53.3885ZM42.1942 47.1055C42.1605 47.5855 42.144 47.9818 42.144 48.2957C42.144 50.3439 42.5547 51.9769 43.3755 53.1947C44.1963 54.4126 45.3523 55.0215 46.8438 55.0215C47.2624 55.0215 47.6897 54.9567 48.1256 54.8277C48.5615 54.6988 48.9464 54.5051 49.2817 54.2465H49.3068C49.3571 54.2465 49.3987 54.2837 49.4325 54.3572C49.4827 54.4126 49.4914 54.4679 49.4576 54.5233C48.285 55.5569 46.9946 56.0733 45.5872 56.0733C44.2803 56.0733 43.1658 55.7688 42.2445 55.1599C41.3397 54.5327 40.6525 53.7206 40.1836 52.7242C39.7146 51.7278 39.4799 50.6483 39.4799 49.4858C39.4799 48.2126 39.7649 47.0501 40.3344 45.9984C40.9038 44.9284 41.675 44.0886 42.6466 43.4796C43.6182 42.8525 44.6738 42.5386 45.8133 42.5386C47.0535 42.5386 47.9999 42.8984 48.6534 43.618C49.3068 44.3377 49.6335 45.2787 49.6335 46.4412C49.6335 46.6809 49.6084 46.8469 49.5581 46.9394C49.5244 47.0319 49.449 47.0778 49.332 47.0778L42.1942 47.1055ZM44.9588 43.2029C44.2551 43.2029 43.6685 43.4979 43.1995 44.0886C42.7472 44.6793 42.437 45.5002 42.2696 46.5519L46.9443 46.4689C46.9106 44.2918 46.2492 43.2029 44.9588 43.2029ZM58.2826 48.5724C59.5895 48.646 60.5776 48.96 61.2483 49.5135C61.9348 50.0671 62.2787 50.8326 62.2787 51.8108C62.2787 52.604 62.0691 53.3054 61.6504 53.9144C61.2311 54.5233 60.6451 55.0033 59.8911 55.3536C59.1537 55.6858 58.3077 55.8518 57.3527 55.8518C56.9003 55.8518 56.3553 55.8242 55.719 55.7688C55.4842 55.7506 55.1912 55.7317 54.8394 55.7135C54.5041 55.6952 54.1356 55.6858 53.7335 55.6858L52.125 55.7135C51.8234 55.7317 51.4041 55.7411 50.8684 55.7411C50.8346 55.7411 50.8181 55.6858 50.8181 55.5751C50.8181 55.4643 50.8346 55.409 50.8684 55.409C51.371 55.409 51.7308 55.3631 51.9491 55.2706C52.1832 55.1781 52.334 55.0033 52.4015 54.7447C52.4848 54.4679 52.5271 54.0527 52.5271 53.4992V45.0296C52.5271 44.4761 52.4848 44.0704 52.4015 43.8118C52.334 43.5532 52.1832 43.3784 51.9491 43.2859C51.7308 43.1752 51.3876 43.1198 50.9186 43.1198C50.8684 43.1198 50.8432 43.0645 50.8432 42.9538C50.8432 42.8431 50.8684 42.7877 50.9186 42.7877L52.125 42.8154C52.795 42.8525 53.3314 42.8707 53.7335 42.8707C54.2362 42.8707 54.764 42.8431 55.3169 42.7877C55.5008 42.7695 55.7772 42.7506 56.1463 42.7324C56.5147 42.7141 56.8328 42.7047 57.1013 42.7047C58.3408 42.7047 59.3044 42.9356 59.9916 43.3966C60.6953 43.8577 61.0472 44.522 61.0472 45.3895C61.0472 46.0909 60.8124 46.7086 60.3435 47.2439C59.8739 47.7793 59.1874 48.2221 58.2826 48.5724ZM56.473 43.0645C56.0709 43.0645 55.7693 43.1198 55.5682 43.2306C55.3672 43.3231 55.2243 43.5168 55.141 43.8118C55.057 44.0886 55.0153 44.5132 55.0153 45.085V48.5171C55.2997 48.5353 55.6767 48.5448 56.1463 48.5448C56.7495 48.5448 57.2098 48.4894 57.5286 48.3787C57.8633 48.2498 58.1146 48.0094 58.2826 47.6591C58.4499 47.2898 58.5339 46.7639 58.5339 46.0814C58.5339 44.0704 57.8467 43.0645 56.473 43.0645ZM56.9003 55.409C58.7264 55.409 59.6398 54.4308 59.6398 52.4751C59.6398 50.2237 58.3745 49.0983 55.8447 49.0983C55.4756 49.0983 55.1992 49.1078 55.0153 49.126V53.4992C55.0153 54.2006 55.141 54.6988 55.3923 54.9938C55.6436 55.2706 56.1463 55.409 56.9003 55.409ZM77.5443 55.409C77.5946 55.409 77.6197 55.4643 77.6197 55.5751C77.6197 55.6858 77.5946 55.7411 77.5443 55.7411H73.4225C73.1712 55.7411 72.7188 55.1876 72.0653 54.0804C71.4284 52.9733 70.6658 51.451 69.7783 49.5135C69.4264 49.5689 69.0745 49.5965 68.7227 49.5965H68.2954V53.4992C68.2954 54.071 68.3285 54.4861 68.3959 54.7447C68.4793 55.0033 68.6221 55.1781 68.8232 55.2706C69.0408 55.3631 69.3841 55.409 69.8537 55.409C69.8867 55.409 69.9039 55.4643 69.9039 55.5751C69.9039 55.6858 69.8867 55.7411 69.8537 55.7411C69.351 55.7411 68.9568 55.7317 68.6724 55.7135L66.9634 55.6858L65.3297 55.7135C65.0281 55.7317 64.6088 55.7411 64.0731 55.7411C64.0394 55.7411 64.0228 55.6858 64.0228 55.5751C64.0228 55.4643 64.0394 55.409 64.0731 55.409C64.542 55.409 64.8853 55.3631 65.1035 55.2706C65.3211 55.1781 65.4719 55.0033 65.5559 54.7447C65.6392 54.4679 65.6816 54.0527 65.6816 53.4992V45.0296C65.6816 44.4761 65.6392 44.0704 65.5559 43.8118C65.4884 43.5532 65.3462 43.3784 65.1286 43.2859C64.9104 43.1752 64.5757 43.1198 64.1234 43.1198C64.0731 43.1198 64.0479 43.0645 64.0479 42.9538C64.0479 42.8431 64.0731 42.7877 64.1234 42.7877L65.3549 42.8154C66.0249 42.8525 66.5612 42.8707 66.9634 42.8707C67.2815 42.8707 67.5745 42.8613 67.843 42.843C68.1109 42.8248 68.3457 42.8059 68.5467 42.7877C69.0997 42.7323 69.6189 42.7047 70.105 42.7047C71.4119 42.7047 72.4086 42.9356 73.0958 43.3966C73.7823 43.8577 74.1262 44.522 74.1262 45.3895C74.1262 46.1091 73.9166 46.7734 73.4979 47.3823C73.0786 47.9912 72.5005 48.4894 71.7638 48.8769C72.6685 50.5558 73.4477 51.8662 74.1011 52.8072C74.7546 53.7483 75.3492 54.422 75.8856 54.8277C76.4213 55.2152 76.9742 55.409 77.5443 55.409ZM68.2954 49.043C68.4125 49.0612 68.6135 49.0707 68.8986 49.0707C69.8536 49.0707 70.515 48.831 70.8841 48.351C71.2525 47.8528 71.437 47.115 71.437 46.1368C71.437 44.2175 70.8001 43.2582 69.5269 43.2582C69.1751 43.2582 68.9151 43.3041 68.7478 43.3966C68.5798 43.4891 68.4627 43.6639 68.3959 43.9225C68.3285 44.1621 68.2954 44.5496 68.2954 45.085V49.043ZM89.1776 54.1081C89.2278 54.1081 89.2609 54.154 89.2781 54.2465C89.3111 54.339 89.2946 54.3944 89.2278 54.4126L86.4632 55.8795C86.3957 55.9167 86.3203 55.9349 86.237 55.9349C85.9182 55.9349 85.6001 55.787 85.2819 55.492C84.9803 55.197 84.7456 54.7265 84.5782 54.0804L83.0702 55.0492C82.5676 55.3813 82.1152 55.6122 81.7131 55.7411C81.3275 55.87 80.9254 55.9349 80.5067 55.9349C79.8532 55.9349 79.3169 55.7411 78.8982 55.3536C78.4789 54.9661 78.2699 54.4679 78.2699 53.859C78.2699 53.2872 78.4372 52.789 78.7725 52.3644C79.1244 51.9215 79.6098 51.5799 80.2302 51.3403L84.4023 49.7073V46.4136C84.4023 45.2882 84.2932 44.4666 84.0756 43.9502C83.8745 43.4338 83.5392 43.1752 83.0702 43.1752C82.5339 43.1752 82.1152 43.4425 81.8136 43.9779C81.512 44.5132 81.2772 45.1957 81.1099 46.026C80.9254 47.0596 80.4392 47.576 79.6522 47.576C79.2329 47.576 78.8982 47.4653 78.6469 47.2439C78.4121 47.0043 78.295 46.6721 78.295 46.2475C78.295 45.6939 78.6045 45.1309 79.2249 44.5591C79.8612 43.9684 80.6324 43.4891 81.5371 43.1198C82.4419 42.7323 83.2713 42.5386 84.0253 42.5386C84.9129 42.5386 85.6166 42.7972 86.1365 43.3136C86.6556 43.8118 86.9156 44.5686 86.9156 45.5832V51.4787C86.9156 52.309 86.9824 52.9274 87.1167 53.3331C87.2503 53.7388 87.4182 53.9974 87.6193 54.1081C87.8369 54.2188 88.1134 54.2742 88.4487 54.2742C88.616 54.2742 88.8422 54.2283 89.1273 54.1358L89.1776 54.1081ZM84.4777 53.5269C84.4274 53.1947 84.4023 52.8254 84.4023 52.4197V50.2885L82.2409 51.1742C81.4366 51.5064 81.0345 52.0971 81.0345 52.9456C81.0345 53.4438 81.143 53.8408 81.3612 54.1358C81.5788 54.4126 81.8718 54.551 82.2409 54.551C82.5087 54.551 82.8771 54.4221 83.3467 54.1635L84.4777 53.5269ZM98.2367 54.1358C98.3035 54.1358 98.3451 54.1729 98.3623 54.2465C98.3954 54.3201 98.3874 54.3754 98.3372 54.4126C97.65 55.0215 97.0303 55.4549 96.4773 55.7135C95.9409 55.9531 95.3378 56.0733 94.6678 56.0733C93.6625 56.0733 92.8159 55.7783 92.1294 55.1876C91.4422 54.5968 91.0989 53.6194 91.0989 52.2537V45.002C91.0989 44.5038 90.9983 44.1716 90.7973 44.0055C90.6128 43.8395 90.2609 43.7564 89.7417 43.7564C89.6915 43.7564 89.6663 43.6734 89.6663 43.5073C89.6663 43.3413 89.6915 43.2582 89.7417 43.2582C90.5963 43.2582 91.3416 43.055 91.9785 42.6493C92.6148 42.2436 93.0255 41.7082 93.2101 41.044C93.2431 40.9886 93.2934 40.9609 93.3609 40.9609C93.4277 40.9609 93.4865 40.9791 93.5368 41.0163C93.5871 41.0345 93.6122 41.0622 93.6122 41.0993V43.1198C94.7683 43.1016 96.1169 43.0186 97.6586 42.8707C97.7089 42.8707 97.7505 42.9356 97.7842 43.0645C97.8173 43.1934 97.8345 43.3507 97.8345 43.535C97.8345 43.7193 97.8008 43.9043 97.734 44.0886C97.6837 44.2547 97.6334 44.3282 97.5832 44.31C96.7955 44.0886 95.472 43.9407 93.6122 43.8671V51.6171C93.6122 53.8131 94.349 54.9108 95.8239 54.9108C96.7287 54.9108 97.5157 54.6617 98.1864 54.1635L98.2367 54.1358ZM103.788 53.4992C103.788 54.0527 103.83 54.4679 103.913 54.7447C103.997 55.0033 104.148 55.1781 104.366 55.2706C104.584 55.3631 104.936 55.409 105.421 55.409C105.455 55.409 105.472 55.4643 105.472 55.5751C105.472 55.6858 105.455 55.7411 105.421 55.7411C104.902 55.7411 104.5 55.7317 104.215 55.7135L102.506 55.6858L100.872 55.7135C100.571 55.7317 100.152 55.7411 99.6156 55.7411C99.5826 55.7411 99.5654 55.6858 99.5654 55.5751C99.5654 55.4643 99.5826 55.409 99.6156 55.409C100.102 55.409 100.454 55.3631 100.671 55.2706C100.906 55.1781 101.065 55.0033 101.149 54.7447C101.233 54.4679 101.274 54.0527 101.274 53.4992V45.0296C101.274 44.4761 101.233 44.0704 101.149 43.8118C101.065 43.5532 100.906 43.3784 100.671 43.2859C100.454 43.1752 100.102 43.1198 99.6156 43.1198C99.5826 43.1198 99.5654 43.0645 99.5654 42.9538C99.5654 42.8431 99.5826 42.7877 99.6156 42.7877L100.872 42.8154C101.543 42.8525 102.087 42.8707 102.506 42.8707C102.958 42.8707 103.536 42.8525 104.24 42.8154L105.421 42.7877C105.455 42.7877 105.472 42.8431 105.472 42.9538C105.472 43.0645 105.455 43.1198 105.421 43.1198C104.952 43.1198 104.601 43.1752 104.366 43.2859C104.148 43.3966 103.997 43.5904 103.913 43.8671C103.83 44.1257 103.788 44.5314 103.788 45.085V53.4992ZM120.494 55.409C120.528 55.409 120.545 55.4643 120.545 55.5751C120.545 55.6858 120.528 55.7411 120.494 55.7411C120.076 55.7411 119.749 55.7317 119.514 55.7135L118.207 55.6858L116.699 55.7135C116.448 55.7317 116.113 55.7411 115.694 55.7411C115.66 55.7411 115.644 55.6858 115.644 55.5751C115.644 55.4643 115.66 55.409 115.694 55.409C116.08 55.409 116.364 55.3536 116.549 55.2429C116.733 55.1322 116.859 54.9479 116.926 54.6894C116.992 54.4126 117.026 53.9974 117.026 53.4438V47.9359C117.026 46.2016 116.791 45.0114 116.322 44.3653C115.87 43.7011 115.242 43.3689 114.437 43.3689C113.767 43.3689 113.139 43.5532 112.552 43.9225C111.983 44.2918 111.447 44.8912 110.944 45.7216V53.4438C110.944 53.9974 110.969 54.4126 111.019 54.6894C111.086 54.9479 111.204 55.1322 111.371 55.2429C111.556 55.3536 111.832 55.409 112.201 55.409C112.234 55.409 112.251 55.4643 112.251 55.5751C112.251 55.6858 112.234 55.7411 112.201 55.7411C111.715 55.7411 111.33 55.7317 111.045 55.7135L109.587 55.6858L108.204 55.7135C107.937 55.7317 107.56 55.7411 107.074 55.7411C107.04 55.7411 107.023 55.6858 107.023 55.5751C107.023 55.4643 107.04 55.409 107.074 55.409C107.459 55.409 107.743 55.3631 107.928 55.2706C108.129 55.1781 108.263 55.0033 108.33 54.7447C108.397 54.4679 108.431 54.0527 108.431 53.4992V45.0296C108.431 44.4761 108.397 44.0704 108.33 43.8118C108.263 43.5532 108.138 43.3784 107.953 43.2859C107.786 43.1752 107.517 43.1198 107.149 43.1198C107.099 43.1198 107.074 43.0645 107.074 42.9538C107.074 42.8431 107.099 42.7877 107.149 42.7877L108.783 42.8154L110.466 42.7877C110.668 42.7877 110.793 42.8249 110.843 42.8984C110.91 42.9538 110.944 43.0922 110.944 43.3136V44.8359C111.581 44.0238 112.267 43.4243 113.005 43.0368C113.742 42.6493 114.555 42.4556 115.443 42.4556C116.615 42.4556 117.588 42.8248 118.358 43.5627C119.129 44.2823 119.514 45.5278 119.514 47.2993V53.4992C119.514 54.0527 119.539 54.4679 119.59 54.7447C119.64 55.0033 119.732 55.1781 119.866 55.2706C120 55.3631 120.209 55.409 120.494 55.409ZM128.532 56.0733C127.191 56.0733 126.018 55.7688 125.013 55.1599C124.024 54.5327 123.27 53.7112 122.751 52.6965C122.231 51.6819 121.972 50.6112 121.972 49.4858C121.972 48.0466 122.265 46.8011 122.852 45.7493C123.455 44.6793 124.301 43.8671 125.39 43.3136C126.479 42.7418 127.761 42.4556 129.235 42.4556C129.972 42.4556 130.676 42.5291 131.347 42.677C132.033 42.8248 132.603 43.0368 133.056 43.3136C133.173 43.3689 133.24 43.4338 133.257 43.5073C133.29 43.5809 133.315 43.7193 133.332 43.9225L133.458 46.5243C133.458 46.5796 133.408 46.6168 133.307 46.635C133.223 46.635 133.173 46.6073 133.156 46.5519C131.866 44.227 130.366 43.0645 128.657 43.0645C127.468 43.0645 126.529 43.5904 125.842 44.6421C125.172 45.6939 124.837 47.1885 124.837 49.126C124.837 51.0081 125.222 52.5304 125.993 53.6929C126.764 54.8554 127.811 55.4367 129.135 55.4367C129.805 55.4367 130.291 55.3631 130.593 55.2153C130.911 55.0492 131.12 54.7542 131.221 54.3295C131.338 53.8867 131.397 53.1947 131.397 52.2537C131.397 51.7737 131.363 51.4415 131.296 51.2572C131.229 51.054 131.087 50.9251 130.869 50.8698C130.651 50.7962 130.274 50.759 129.738 50.759C129.638 50.759 129.587 50.6855 129.587 50.5376C129.587 50.4822 129.595 50.4364 129.612 50.3992C129.646 50.3439 129.679 50.3162 129.713 50.3162C130.584 50.3898 131.464 50.4269 132.352 50.4269C132.754 50.4269 133.424 50.4087 134.363 50.3715C134.396 50.3715 134.421 50.3992 134.438 50.4546C134.471 50.4917 134.488 50.5282 134.488 50.5653C134.488 50.6942 134.446 50.759 134.363 50.759C134.111 50.7408 133.935 50.7685 133.835 50.8421C133.734 50.9156 133.667 51.073 133.634 51.3126C133.6 51.534 133.583 51.9397 133.583 52.5305C133.583 53.3608 133.6 53.942 133.634 54.2742C133.684 54.6063 133.709 54.8372 133.709 54.9661C133.709 55.0769 133.692 55.1504 133.659 55.1876C133.625 55.2058 133.541 55.2429 133.408 55.2983C132.284 55.8147 130.659 56.0733 128.532 56.0733ZM152.085 54.4126C152.152 54.4126 152.185 54.5786 152.185 54.9108C152.185 55.095 152.169 55.2801 152.135 55.4643C152.102 55.6304 152.068 55.7135 152.034 55.7135L150.376 55.6304V59.4777C150.376 59.662 150.309 59.7916 150.174 59.8652L148.214 60.9446C148.114 60.9818 148.063 61 148.063 61C148.013 61 147.988 60.9264 147.988 60.7786V55.5751C146.832 55.5379 144.67 55.5197 141.504 55.5197C141.42 55.5197 141.361 55.4826 141.328 55.409C141.295 55.3354 141.295 55.2611 141.328 55.1876L149.999 42.5109C150.032 42.4556 150.083 42.4279 150.149 42.4279C150.2 42.4279 150.25 42.4461 150.3 42.4832C150.35 42.5204 150.376 42.5663 150.376 42.6216V54.4679C150.711 54.4679 151.28 54.4497 152.085 54.4126ZM143.012 54.5786C144.453 54.5786 146.112 54.5604 147.988 54.5233V46.9671L142.886 54.3849C142.819 54.5138 142.861 54.5786 143.012 54.5786ZM159.938 56.1009C158.782 56.1009 157.751 55.8147 156.847 55.2429C155.942 54.6522 155.23 53.8408 154.71 52.8072C154.208 51.7554 153.956 50.5558 153.956 49.2091C153.956 47.8987 154.208 46.7362 154.71 45.7216C155.23 44.707 155.942 43.9225 156.847 43.3689C157.769 42.7972 158.807 42.5109 159.963 42.5109C161.103 42.5109 162.117 42.7972 163.004 43.3689C163.909 43.9407 164.605 44.7434 165.09 45.777C165.593 46.7916 165.844 47.9635 165.844 49.2921C165.844 50.6206 165.593 51.8013 165.09 52.8349C164.588 53.8685 163.884 54.6712 162.979 55.2429C162.091 55.8147 161.078 56.1009 159.938 56.1009ZM160.24 55.5197C161.128 55.5197 161.79 54.9938 162.225 53.942C162.661 52.8903 162.878 51.451 162.878 49.6242C162.878 48.185 162.728 46.9766 162.426 45.9984C162.142 45.0202 161.756 44.2918 161.27 43.8118C160.801 43.3318 160.273 43.0922 159.687 43.0922C158.799 43.0922 158.103 43.6363 157.601 44.7252C157.098 45.8141 156.847 47.2439 156.847 49.0153C156.847 50.2703 156.981 51.3956 157.249 52.3921C157.534 53.3703 157.927 54.1358 158.43 54.6894C158.95 55.2429 159.553 55.5197 160.24 55.5197ZM185.63 42.7877C185.663 42.7877 185.681 42.8431 185.681 42.9538C185.681 43.0645 185.663 43.1198 185.63 43.1198C185.128 43.1198 184.667 43.3413 184.248 43.7841C183.846 44.227 183.527 44.8359 183.293 45.6109L179.749 55.7135C179.347 56.9313 178.845 58.0107 178.241 58.9518C177.638 59.8929 177.01 60.5477 176.356 60.917C176.256 60.9905 176.08 60.917 175.829 60.6955C175.594 60.4923 175.401 60.2345 175.251 59.9205C175.083 59.4959 174.999 59.1084 174.999 58.7581C174.999 58.4441 175.066 58.2693 175.2 58.2322C176.138 58.0843 176.934 57.817 177.588 57.4295C178.258 57.0602 178.786 56.479 179.171 55.6858L174.547 45.085C174.211 44.31 173.918 43.7936 173.667 43.535C173.416 43.2582 173.072 43.1198 172.637 43.1198C172.586 43.1198 172.561 43.0645 172.561 42.9538C172.561 42.8431 172.586 42.7877 172.637 42.7877L173.743 42.8154C174.379 42.8525 174.991 42.8707 175.577 42.8707C175.996 42.8707 176.524 42.8525 177.161 42.8154L178.266 42.7877C178.317 42.7877 178.342 42.8431 178.342 42.9538C178.342 43.0645 178.317 43.1198 178.266 43.1198C177.395 43.1198 176.96 43.3966 176.96 43.9502C176.96 44.1898 177.035 44.4761 177.186 44.8082L180.403 52.0046L182.614 45.4448C182.748 45.0391 182.816 44.688 182.816 44.393C182.816 43.5445 182.296 43.1198 181.257 43.1198C181.207 43.1198 181.182 43.0645 181.182 42.9538C181.182 42.8431 181.207 42.7877 181.257 42.7877L182.137 42.8154C182.673 42.8525 183.2 42.8707 183.72 42.8707C184.005 42.8707 184.331 42.8525 184.701 42.8154L185.63 42.7877ZM188.966 47.1055C188.933 47.5855 188.916 47.9818 188.916 48.2957C188.916 50.3439 189.327 51.9769 190.148 53.1947C190.969 54.4126 192.125 55.0215 193.616 55.0215C194.035 55.0215 194.462 54.9567 194.898 54.8277C195.334 54.6988 195.719 54.5051 196.054 54.2465H196.079C196.129 54.2465 196.171 54.2837 196.205 54.3572C196.255 54.4126 196.264 54.4679 196.23 54.5233C195.057 55.5569 193.767 56.0733 192.359 56.0733C191.053 56.0733 189.938 55.7688 189.017 55.1599C188.112 54.5327 187.425 53.7206 186.956 52.7242C186.487 51.7278 186.252 50.6483 186.252 49.4858C186.252 48.2126 186.537 47.0501 187.107 45.9984C187.676 44.9284 188.447 44.0886 189.419 43.4796C190.39 42.8525 191.446 42.5386 192.586 42.5386C193.826 42.5386 194.772 42.8984 195.426 43.618C196.079 44.3377 196.406 45.2787 196.406 46.4412C196.406 46.6809 196.381 46.8469 196.33 46.9394C196.297 47.0319 196.221 47.0778 196.104 47.0778L188.966 47.1055ZM191.731 43.2029C191.027 43.2029 190.441 43.4979 189.972 44.0886C189.519 44.6793 189.209 45.5002 189.042 46.5519L193.717 46.4689C193.683 44.2918 193.021 43.2029 191.731 43.2029ZM209.443 54.1081C209.493 54.1081 209.526 54.154 209.543 54.2465C209.576 54.339 209.56 54.3944 209.493 54.4126L206.728 55.8795C206.661 55.9167 206.585 55.9349 206.502 55.9349C206.183 55.9349 205.865 55.787 205.547 55.492C205.245 55.197 205.011 54.7265 204.843 54.0804L203.335 55.0492C202.833 55.3813 202.38 55.6122 201.978 55.7411C201.592 55.87 201.19 55.9349 200.772 55.9349C200.118 55.9349 199.582 55.7411 199.163 55.3536C198.744 54.9661 198.535 54.4679 198.535 53.859C198.535 53.2872 198.702 52.789 199.038 52.3644C199.389 51.9215 199.875 51.5799 200.495 51.3403L204.667 49.7073V46.4136C204.667 45.2882 204.558 44.4666 204.341 43.9502C204.139 43.4338 203.804 43.1752 203.335 43.1752C202.799 43.1752 202.38 43.4425 202.079 43.9779C201.777 44.5132 201.542 45.1957 201.375 46.026C201.19 47.0596 200.704 47.576 199.917 47.576C199.498 47.576 199.163 47.4653 198.912 47.2439C198.677 47.0043 198.56 46.6721 198.56 46.2475C198.56 45.6939 198.87 45.1309 199.49 44.5591C200.126 43.9684 200.897 43.4891 201.802 43.1198C202.707 42.7323 203.536 42.5386 204.29 42.5386C205.178 42.5386 205.882 42.7972 206.401 43.3136C206.921 43.8118 207.181 44.5686 207.181 45.5832V51.4787C207.181 52.309 207.247 52.9274 207.382 53.3331C207.515 53.7388 207.683 53.9974 207.884 54.1081C208.102 54.2188 208.378 54.2742 208.714 54.2742C208.881 54.2742 209.107 54.2283 209.392 54.1358L209.443 54.1081ZM204.743 53.5269C204.692 53.1947 204.667 52.8254 204.667 52.4197V50.2885L202.506 51.1742C201.702 51.5064 201.299 52.0971 201.299 52.9456C201.299 53.4438 201.408 53.8408 201.626 54.1358C201.844 54.4126 202.137 54.551 202.506 54.551C202.774 54.551 203.142 54.4221 203.612 54.1635L204.743 53.5269ZM223.654 55.409C223.704 55.409 223.729 55.4643 223.729 55.5751C223.729 55.6858 223.704 55.7411 223.654 55.7411H219.532C219.281 55.7411 218.828 55.1876 218.175 54.0804C217.538 52.9733 216.775 51.451 215.888 49.5135C215.536 49.5689 215.184 49.5965 214.832 49.5965H214.405V53.4992C214.405 54.071 214.438 54.4861 214.506 54.7447C214.589 55.0033 214.732 55.1781 214.933 55.2706C215.15 55.3631 215.494 55.409 215.963 55.409C215.996 55.409 216.013 55.4643 216.013 55.5751C216.013 55.6858 215.996 55.7411 215.963 55.7411C215.461 55.7411 215.066 55.7317 214.782 55.7135L213.073 55.6858L211.439 55.7135C211.138 55.7317 210.718 55.7411 210.183 55.7411C210.149 55.7411 210.132 55.6858 210.132 55.5751C210.132 55.4643 210.149 55.409 210.183 55.409C210.652 55.409 210.995 55.3631 211.213 55.2706C211.431 55.1781 211.581 55.0033 211.665 54.7447C211.749 54.4679 211.791 54.0527 211.791 53.4992V45.0296C211.791 44.4761 211.749 44.0704 211.665 43.8118C211.598 43.5532 211.456 43.3784 211.238 43.2859C211.02 43.1752 210.685 43.1198 210.233 43.1198C210.183 43.1198 210.157 43.0645 210.157 42.9538C210.157 42.8431 210.183 42.7877 210.233 42.7877L211.464 42.8154C212.134 42.8525 212.671 42.8707 213.073 42.8707C213.391 42.8707 213.684 42.8613 213.953 42.843C214.22 42.8248 214.455 42.8059 214.656 42.7877C215.209 42.7323 215.728 42.7047 216.215 42.7047C217.521 42.7047 218.518 42.9356 219.205 43.3966C219.892 43.8577 220.236 44.522 220.236 45.3895C220.236 46.1091 220.026 46.7734 219.607 47.3823C219.188 47.9912 218.61 48.4894 217.873 48.8769C218.778 50.5558 219.557 51.8662 220.211 52.8072C220.864 53.7483 221.459 54.422 221.995 54.8277C222.531 55.2152 223.084 55.409 223.654 55.409ZM214.405 49.043C214.522 49.0612 214.723 49.0707 215.008 49.0707C215.963 49.0707 216.625 48.831 216.994 48.351C217.362 47.8528 217.547 47.115 217.547 46.1368C217.547 44.2175 216.91 43.2582 215.636 43.2582C215.285 43.2582 215.025 43.3041 214.857 43.3966C214.689 43.4891 214.572 43.6639 214.506 43.9225C214.438 44.1621 214.405 44.5496 214.405 45.085V49.043ZM226.767 44.8359C226.767 45.3523 226.893 45.8046 227.144 46.1921C227.412 46.5614 227.731 46.8841 228.099 47.1609C228.485 47.4194 229.004 47.7326 229.657 48.1019C230.411 48.5448 230.998 48.9228 231.417 49.2367C231.852 49.5317 232.221 49.9192 232.522 50.3992C232.841 50.8792 233 51.451 233 52.1153C233 52.8531 232.799 53.5269 232.397 54.1358C232.011 54.7265 231.475 55.197 230.788 55.5474C230.101 55.8977 229.331 56.0733 228.476 56.0733C227.706 56.0733 226.952 55.9626 226.214 55.7411C225.494 55.5379 224.991 55.3077 224.706 55.0492C224.572 54.9567 224.505 54.7629 224.505 54.4679L224.379 51.3403C224.379 51.2667 224.421 51.2201 224.505 51.2019C224.589 51.1837 224.647 51.2113 224.681 51.2849C225.318 52.5028 225.963 53.4992 226.616 54.2742C227.27 55.0492 228.015 55.4367 228.853 55.4367C229.356 55.4367 229.774 55.2706 230.11 54.9385C230.445 54.6063 230.612 54.1081 230.612 53.4438C230.612 52.8531 230.47 52.3367 230.185 51.8938C229.917 51.451 229.582 51.0817 229.18 50.7867C228.778 50.4728 228.241 50.113 227.571 49.7073C226.583 49.1166 225.829 48.563 225.309 48.0466C224.79 47.5112 224.53 46.8193 224.53 45.9707C224.53 44.9007 224.957 44.0514 225.812 43.4243C226.667 42.7782 227.697 42.4556 228.903 42.4556C229.44 42.4556 230.001 42.5204 230.587 42.6493C231.174 42.7782 231.643 42.9261 231.995 43.0922C232.146 43.1475 232.246 43.2211 232.296 43.3136C232.347 43.3871 232.372 43.4979 232.372 43.6457V46.2752C232.372 46.3305 232.33 46.3764 232.246 46.4136C232.162 46.4318 232.104 46.4136 232.07 46.3582C231.752 45.6204 231.308 44.8912 230.738 44.1716C230.169 43.452 229.415 43.0922 228.476 43.0922C227.907 43.0922 227.479 43.2582 227.194 43.5904C226.909 43.9043 226.767 44.3195 226.767 44.8359Z" fill="#E9E9E9"/>
</svg>
