<svg width="282" height="70" viewBox="0 0 282 70" fill="none" xmlns="http://www.w3.org/2000/svg">
<path d="M75.5096 25.0351C75.5609 25.0351 75.5865 25.1154 75.5865 25.2758C75.5865 25.4363 75.5609 25.5166 75.5096 25.5166H68.6703C68.1068 25.5166 67.0566 24.4199 65.5196 22.2267C63.9827 20.0067 62.1256 16.9174 59.9482 12.9589C59.7433 12.9856 59.4487 12.999 59.0645 12.999C58.0655 12.999 57.3611 12.9856 56.9512 12.9589V22.2668C56.9512 23.096 57.0153 23.6978 57.1433 24.0722C57.2714 24.4467 57.5148 24.7008 57.8734 24.8345C58.2576 24.9682 58.8596 25.0351 59.6793 25.0351C59.7305 25.0351 59.7561 25.1154 59.7561 25.2758C59.7561 25.4363 59.7305 25.5166 59.6793 25.5166C58.834 25.5166 58.1679 25.5032 57.6812 25.4764L54.7611 25.4363L51.9562 25.4764C51.4439 25.5032 50.7523 25.5166 49.8814 25.5166C49.8045 25.5166 49.7661 25.4363 49.7661 25.2758C49.7661 25.1154 49.8045 25.0351 49.8814 25.0351C50.7011 25.0351 51.2902 24.9682 51.6488 24.8345C52.0331 24.7008 52.2892 24.4467 52.4173 24.0722C52.571 23.671 52.6478 23.0692 52.6478 22.2668V3.69109C52.6478 2.88868 52.5838 2.30025 52.4557 1.92579C52.3276 1.55133 52.0715 1.29725 51.6872 1.16351C51.303 1.00303 50.7138 0.922771 49.9198 0.922771C49.8685 0.922771 49.8429 0.842535 49.8429 0.682054C49.8429 0.521573 49.8685 0.441337 49.9198 0.441337L51.9562 0.48146C53.1345 0.534954 54.0695 0.561708 54.7611 0.561708C55.504 0.561708 56.3236 0.521577 57.2202 0.441337C57.5019 0.41459 57.8606 0.387836 58.296 0.361089C58.7571 0.334342 59.2951 0.320965 59.9098 0.320965C62.2665 0.320965 64.0851 0.775678 65.3659 1.68507C66.6723 2.56772 67.3255 3.81144 67.3255 5.41626C67.3255 6.64661 66.9669 7.82348 66.2497 8.94685C65.5324 10.0702 64.5974 10.9796 63.4447 11.675C65.494 15.0451 67.2102 17.6797 68.5935 19.5787C70.0023 21.4778 71.2447 22.8686 72.3205 23.7513C73.422 24.6072 74.485 25.0351 75.5096 25.0351ZM56.9512 11.7954C57.566 11.9024 58.3088 11.9559 59.1798 11.9559C60.1019 11.9559 60.832 11.8088 61.3699 11.5145C61.9078 11.2203 62.2921 10.7122 62.5226 9.98999C62.7788 9.26782 62.9068 8.25143 62.9068 6.94083C62.9068 4.74759 62.5995 3.23638 61.9847 2.40723C61.3699 1.57807 60.4862 1.16351 59.3335 1.16351C58.4625 1.16351 57.8478 1.36412 57.4891 1.76532C57.1305 2.16652 56.9512 2.83519 56.9512 3.77133V11.7954ZM94.1929 19.1374C94.1929 19.0839 94.2442 19.0572 94.3458 19.0572C94.4235 19.0572 94.4875 19.0839 94.5379 19.1374C94.6156 19.1642 94.654 19.1909 94.654 19.2177C94.3979 21.3039 94.2698 23.2029 94.2698 24.9148C94.2698 25.1287 94.2314 25.2892 94.1545 25.3962C94.0777 25.4764 93.924 25.5166 93.6934 25.5166H76.7104C76.6335 25.5166 76.5951 25.4363 76.5951 25.2758C76.5951 25.1154 76.6335 25.0351 76.7104 25.0351C77.5301 25.0351 78.1192 24.9682 78.4779 24.8345C78.8621 24.7008 79.1182 24.4467 79.2463 24.0722C79.3744 23.671 79.4384 23.0692 79.4384 22.2668V3.69109C79.4384 2.88868 79.3744 2.30025 79.2463 1.92579C79.1182 1.55133 78.8621 1.29725 78.4779 1.16351C78.0936 1.00303 77.5045 0.922771 76.7104 0.922771C76.6335 0.922771 76.5951 0.842535 76.5951 0.682054C76.5951 0.521573 76.6335 0.441337 76.7104 0.441337H93.0018C93.258 0.441337 93.386 0.561703 93.386 0.802425L93.4629 6.13844C93.4629 6.19193 93.3861 6.23203 93.2324 6.25878C93.1043 6.28553 93.0274 6.2588 93.0018 6.17856C92.592 4.62724 91.9004 3.4771 90.927 2.72819C89.9536 1.97928 88.6728 1.60483 87.0847 1.60483H85.932C85.1635 1.60483 84.6 1.77867 84.2413 2.12638C83.8827 2.47409 83.7034 3.00904 83.7034 3.73121V11.9158H86.8925C88.3782 11.9158 89.5181 11.6483 90.3122 11.1134C91.1063 10.5784 91.5033 9.82949 91.5033 8.8666C91.5033 8.78636 91.5673 8.74625 91.6954 8.74625C91.8491 8.74625 91.926 8.78636 91.926 8.8666L91.8876 12.4774L91.926 14.4032C91.9772 15.3126 92.0028 16.0348 92.0028 16.5697C92.0028 16.6232 91.926 16.65 91.7723 16.65C91.6186 16.65 91.5417 16.6232 91.5417 16.5697C91.5417 15.4731 91.1319 14.6172 90.3122 14.002C89.5181 13.3601 88.3654 13.0391 86.8541 13.0391H83.7034V22.1063C83.7034 22.882 83.8443 23.4571 84.126 23.8315C84.4078 24.206 84.8561 24.3932 85.4708 24.3932H86.7388C88.7369 24.3932 90.3378 23.9652 91.5417 23.1093C92.7457 22.2534 93.6294 20.9295 94.1929 19.1374ZM121.886 0.441337C121.963 0.441337 122.002 0.521573 122.002 0.682054C122.002 0.842535 121.963 0.922771 121.886 0.922771C120.964 0.922771 120.081 1.35073 119.235 2.20663C118.39 3.06253 117.711 4.21264 117.199 5.65697L110.091 25.4764C110.065 25.5834 109.924 25.6369 109.668 25.6369C109.412 25.6369 109.271 25.5834 109.245 25.4764L99.4473 3.77133C98.9862 2.80844 98.5251 2.09965 98.064 1.64495C97.603 1.16351 97.0907 0.922771 96.5271 0.922771C96.4503 0.922771 96.4119 0.842535 96.4119 0.682054C96.4119 0.521573 96.4503 0.441337 96.5271 0.441337C96.9114 0.441337 97.1803 0.454713 97.334 0.48146C97.8463 0.534954 98.5124 0.561708 99.332 0.561708C101.535 0.561708 103.405 0.534954 104.942 0.48146C105.352 0.454713 105.864 0.441337 106.479 0.441337C106.556 0.441337 106.594 0.521573 106.594 0.682054C106.594 0.842535 106.556 0.922771 106.479 0.922771C105.71 0.922771 105.108 1.09665 104.673 1.44436C104.263 1.76532 104.058 2.23338 104.058 2.84856C104.058 3.30326 104.199 3.85156 104.481 4.49349L111.128 19.2979L116.123 5.53663C116.379 4.78772 116.507 4.14578 116.507 3.61084C116.507 2.78168 116.264 2.12639 115.777 1.64495C115.316 1.16351 114.637 0.922771 113.741 0.922771C113.664 0.922771 113.625 0.842535 113.625 0.682054C113.625 0.521573 113.664 0.441337 113.741 0.441337L115.623 0.48146C116.699 0.534954 117.66 0.561708 118.505 0.561708C118.992 0.561708 119.594 0.534954 120.311 0.48146L121.886 0.441337ZM140.758 19.1374C140.758 19.0839 140.809 19.0572 140.912 19.0572C140.988 19.0572 141.052 19.0839 141.104 19.1374C141.181 19.1642 141.219 19.1909 141.219 19.2177C140.963 21.3039 140.835 23.2029 140.835 24.9148C140.835 25.1287 140.796 25.2892 140.719 25.3962C140.643 25.4764 140.489 25.5166 140.258 25.5166H123.275C123.198 25.5166 123.16 25.4363 123.16 25.2758C123.16 25.1154 123.198 25.0351 123.275 25.0351C124.095 25.0351 124.684 24.9682 125.043 24.8345C125.427 24.7008 125.683 24.4467 125.811 24.0722C125.939 23.671 126.003 23.0692 126.003 22.2668V3.69109C126.003 2.88868 125.939 2.30025 125.811 1.92579C125.683 1.55133 125.427 1.29725 125.043 1.16351C124.659 1.00303 124.069 0.922771 123.275 0.922771C123.198 0.922771 123.16 0.842535 123.16 0.682054C123.16 0.521573 123.198 0.441337 123.275 0.441337H139.567C139.823 0.441337 139.951 0.561703 139.951 0.802425L140.028 6.13844C140.028 6.19193 139.951 6.23203 139.797 6.25878C139.669 6.28553 139.592 6.2588 139.567 6.17856C139.157 4.62724 138.465 3.4771 137.492 2.72819C136.518 1.97928 135.238 1.60483 133.65 1.60483H132.497C131.728 1.60483 131.165 1.77867 130.806 2.12638C130.448 2.47409 130.268 3.00904 130.268 3.73121V11.9158H133.457C134.943 11.9158 136.083 11.6483 136.877 11.1134C137.671 10.5784 138.068 9.82949 138.068 8.8666C138.068 8.78636 138.132 8.74625 138.26 8.74625C138.414 8.74625 138.491 8.78636 138.491 8.8666L138.452 12.4774L138.491 14.4032C138.542 15.3126 138.568 16.0348 138.568 16.5697C138.568 16.6232 138.491 16.65 138.337 16.65C138.184 16.65 138.107 16.6232 138.107 16.5697C138.107 15.4731 137.697 14.6172 136.877 14.002C136.083 13.3601 134.93 13.0391 133.419 13.0391H130.268V22.1063C130.268 22.882 130.409 23.4571 130.691 23.8315C130.973 24.206 131.421 24.3932 132.036 24.3932H133.304C135.302 24.3932 136.903 23.9652 138.107 23.1093C139.311 22.2534 140.194 20.9295 140.758 19.1374ZM151.085 22.1063C151.085 22.8018 151.136 23.3099 151.239 23.6309C151.341 23.9251 151.533 24.1257 151.815 24.2327C152.122 24.3397 152.609 24.3932 153.275 24.3932H154.581C156.579 24.3932 158.308 23.8449 159.769 22.7482C161.229 21.6249 162.202 20.1137 162.689 18.2147C162.689 18.1612 162.74 18.1344 162.842 18.1344C162.894 18.1344 162.945 18.1612 162.996 18.2147C163.073 18.2414 163.111 18.2681 163.111 18.2949C162.881 20.9428 162.766 23.1495 162.766 24.9148C162.766 25.1287 162.714 25.2892 162.612 25.3962C162.535 25.4764 162.394 25.5166 162.189 25.5166H144.053C144.002 25.5166 143.977 25.4363 143.977 25.2758C143.977 25.1154 144.002 25.0351 144.053 25.0351C144.873 25.0351 145.462 24.9682 145.821 24.8345C146.205 24.7008 146.461 24.4467 146.589 24.0722C146.743 23.671 146.82 23.0692 146.82 22.2668V3.69109C146.82 2.88868 146.743 2.30025 146.589 1.92579C146.461 1.55133 146.205 1.29725 145.821 1.16351C145.437 1.00303 144.848 0.922771 144.053 0.922771C144.002 0.922771 143.977 0.842535 143.977 0.682054C143.977 0.521573 144.002 0.441337 144.053 0.441337L146.013 0.48146C147.191 0.534954 148.165 0.561708 148.933 0.561708C149.702 0.561708 150.675 0.534954 151.853 0.48146L153.813 0.441337C153.89 0.441337 153.928 0.521573 153.928 0.682054C153.928 0.842535 153.89 0.922771 153.813 0.922771C153.019 0.922771 152.43 1.00303 152.046 1.16351C151.661 1.29725 151.405 1.56471 151.277 1.96591C151.149 2.34037 151.085 2.9288 151.085 3.73121V22.1063ZM170.524 4.49349C170.524 5.45637 170.754 6.31229 171.215 7.06121C171.702 7.81012 172.291 8.46541 172.983 9.0271C173.675 9.58878 174.61 10.2708 175.788 11.0732C177.069 11.9291 178.093 12.678 178.862 13.32C179.63 13.9619 180.283 14.7509 180.821 15.6871C181.359 16.5965 181.628 17.653 181.628 18.8566C181.628 20.2474 181.27 21.4912 180.552 22.5878C179.835 23.6577 178.836 24.5002 177.555 25.1153C176.3 25.7038 174.891 25.998 173.329 25.998C172.176 25.998 170.972 25.8375 169.717 25.5166C168.462 25.1688 167.617 24.7944 167.181 24.3932C167.053 24.2862 166.951 24.1926 166.874 24.1124C166.822 24.0054 166.797 23.8449 166.797 23.6309L166.682 17.2518V17.2116C166.682 17.1047 166.746 17.0512 166.874 17.0512C167.002 17.0244 167.079 17.0645 167.104 17.1715C167.873 18.8031 168.539 20.1271 169.102 21.1434C169.691 22.1598 170.421 23.0559 171.292 23.8315C172.189 24.6072 173.201 24.995 174.328 24.995C175.352 24.995 176.198 24.7142 176.864 24.1525C177.53 23.564 177.863 22.5744 177.863 21.1836C177.863 20.0067 177.607 18.9769 177.094 18.0943C176.608 17.2116 176.006 16.4627 175.288 15.8476C174.571 15.2324 173.585 14.4968 172.33 13.6409C171.1 12.8118 170.14 12.103 169.448 11.5145C168.782 10.9261 168.206 10.2173 167.719 9.38818C167.232 8.55903 166.989 7.58277 166.989 6.4594C166.989 5.04181 167.373 3.85157 168.142 2.88869C168.936 1.89905 169.948 1.17688 171.177 0.722178C172.407 0.240734 173.7 0 175.058 0C175.954 0 176.864 0.0936384 177.786 0.280867C178.708 0.441348 179.451 0.641951 180.014 0.882673C180.245 0.989661 180.399 1.11 180.475 1.24374C180.552 1.35072 180.591 1.49784 180.591 1.68507V7.58276C180.591 7.66301 180.527 7.72986 180.399 7.78336C180.271 7.81011 180.194 7.78335 180.168 7.70311L179.861 6.94083C179.22 5.25578 178.465 3.82483 177.594 2.64797C176.748 1.4711 175.557 0.882673 174.02 0.882673C172.996 0.882673 172.15 1.19024 171.484 1.80542C170.844 2.4206 170.524 3.31662 170.524 4.49349ZM186.61 0.441337C187.506 0.441337 188.198 0.802411 188.684 1.52458C189.197 2.24674 189.453 3.27651 189.453 4.61386C189.453 5.81747 189.197 6.94082 188.684 7.98395C188.172 9.00033 187.404 10.0301 186.379 11.0732C186.353 11.1 186.315 11.1134 186.264 11.1134C186.187 11.1134 186.123 11.0732 186.072 10.993C186.02 10.9127 186.02 10.8459 186.072 10.7924C187.327 9.45505 187.954 7.87698 187.954 6.05819C187.954 5.30927 187.826 4.76097 187.57 4.41326C187.34 4.81447 186.866 5.01504 186.148 5.01504C185.534 5.01504 185.034 4.81447 184.65 4.41326C184.291 3.98531 184.112 3.43699 184.112 2.76831C184.112 2.04615 184.33 1.48447 184.765 1.08327C185.226 0.655316 185.841 0.441337 186.61 0.441337ZM191.673 24.9148C192.825 23.4771 193.93 22.1231 194.987 20.8526C196.94 18.5122 198.429 16.6567 199.453 15.2859C200.478 13.9151 201.31 12.5777 201.951 11.2738C202.623 9.93648 202.959 8.69943 202.959 7.56269C202.959 6.32565 202.607 5.22234 201.903 4.25277C201.198 3.24976 200.206 2.74827 198.925 2.74827C197.516 2.74827 196.364 3.33333 195.467 4.50351C194.57 5.64025 193.642 7.34539 192.681 9.61888C192.681 9.68574 192.617 9.71917 192.489 9.71917C192.393 9.71917 192.297 9.70246 192.201 9.66903C192.105 9.60216 192.073 9.55199 192.105 9.51855L194.218 0.942846C194.218 0.875979 194.282 0.842549 194.41 0.842549C194.506 0.842549 194.586 0.875979 194.65 0.942846C194.746 0.97628 194.779 1.00971 194.747 1.04314C194.714 1.21031 194.698 1.41091 194.698 1.64495C194.698 2.24675 194.939 2.54765 195.419 2.54765C195.803 2.54765 196.347 2.41393 197.052 2.14646C198.012 1.87899 198.765 1.6951 199.309 1.5948C199.886 1.46107 200.542 1.39421 201.278 1.39421C203.328 1.39421 204.977 1.97928 206.225 3.14945C207.474 4.2862 208.099 5.77399 208.099 7.61284C208.099 8.74958 207.842 9.78602 207.33 10.7222C206.818 11.6249 206.177 12.4273 205.409 13.1294C204.672 13.8315 203.616 14.7342 202.239 15.8375C200.99 16.8071 199.918 17.6931 199.021 18.4955C198.125 19.2979 197.292 20.1839 196.524 21.1535C196.331 21.3875 196.396 21.5045 196.716 21.5045C200.91 21.5045 203.808 21.4544 205.409 21.3541C207.042 21.2538 208.131 21.0532 208.675 20.7523C209.219 20.4179 209.619 19.8328 209.876 18.997C209.908 18.8967 210.004 18.8465 210.164 18.8465C210.356 18.8465 210.452 18.8967 210.452 18.997L209.972 24.9649C209.972 25.0986 209.924 25.2324 209.828 25.3661C209.764 25.4664 209.668 25.5166 209.539 25.5166H192.009C191.881 25.5166 191.769 25.4497 191.673 25.316C191.609 25.1822 191.609 25.0485 191.673 24.9148ZM213.248 24.9148C214.401 23.4771 215.505 22.1231 216.562 20.8526C218.515 18.5122 220.004 16.6567 221.029 15.2859C222.053 13.9151 222.886 12.5777 223.526 11.2738C224.199 9.93648 224.535 8.69943 224.535 7.56269C224.535 6.32565 224.183 5.22234 223.478 4.25277C222.774 3.24976 221.781 2.74827 220.5 2.74827C219.092 2.74827 217.939 3.33333 217.042 4.50351C216.146 5.64025 215.217 7.34539 214.257 9.61888C214.257 9.68574 214.193 9.71917 214.065 9.71917C213.969 9.71917 213.872 9.70246 213.776 9.66903C213.68 9.60216 213.648 9.55199 213.68 9.51855L215.794 0.942846C215.794 0.875979 215.858 0.842549 215.986 0.842549C216.082 0.842549 216.162 0.875979 216.226 0.942846C216.322 0.97628 216.354 1.00971 216.322 1.04314C216.29 1.21031 216.274 1.41091 216.274 1.64495C216.274 2.24675 216.514 2.54765 216.994 2.54765C217.379 2.54765 217.923 2.41393 218.627 2.14646C219.588 1.87899 220.34 1.6951 220.885 1.5948C221.461 1.46107 222.117 1.39421 222.854 1.39421C224.903 1.39421 226.552 1.97928 227.801 3.14945C229.05 4.2862 229.674 5.77399 229.674 7.61284C229.674 8.74958 229.418 9.78602 228.906 10.7222C228.393 11.6249 227.753 12.4273 226.984 13.1294C226.248 13.8315 225.191 14.7342 223.814 15.8375C222.566 16.8071 221.493 17.6931 220.597 18.4955C219.7 19.2979 218.867 20.1839 218.099 21.1535C217.907 21.3875 217.971 21.5045 218.291 21.5045C222.486 21.5045 225.383 21.4544 226.984 21.3541C228.617 21.2538 229.706 21.0532 230.25 20.7523C230.795 20.4179 231.195 19.8328 231.451 18.997C231.483 18.8967 231.579 18.8465 231.739 18.8465C231.931 18.8465 232.027 18.8967 232.027 18.997L231.547 24.9649C231.547 25.0986 231.499 25.2324 231.403 25.3661C231.339 25.4664 231.243 25.5166 231.115 25.5166H213.584C213.456 25.5166 213.344 25.4497 213.248 25.316C213.184 25.1822 213.184 25.0485 213.248 24.9148ZM11.3156 43.7646C12.2082 43.7646 13.1408 43.849 14.1141 44.0187C15.0875 44.1667 15.848 44.3681 16.3955 44.6222C16.578 44.6857 16.6893 44.7701 16.7301 44.8763C16.791 44.9607 16.8414 45.1195 16.8822 45.3527L17.2472 49.7676C17.2472 49.8312 17.1968 49.8738 17.0951 49.8947C16.9935 49.9156 16.9326 49.8838 16.9126 49.7994C16.2234 48.1269 15.3004 46.8347 14.1445 45.9244C12.9886 45.0142 11.6502 44.5587 10.1293 44.5587C8.1217 44.5587 6.57037 45.3318 5.47531 46.8773C4.38024 48.4228 3.83274 50.4982 3.83274 53.1026C3.83274 55.051 4.12651 56.8297 4.71486 58.4386C5.32323 60.0476 6.16453 61.329 7.23958 62.2818C8.33464 63.2138 9.57138 63.6794 10.9506 63.6794C12.2482 63.6794 13.4041 63.2347 14.4183 62.3454C15.4526 61.4352 16.3755 60.0585 17.1864 58.2163C17.2064 58.1319 17.2672 58.1001 17.3689 58.121C17.4906 58.1419 17.5514 58.1846 17.5514 58.2481L17.0951 62.5677C17.0543 62.8218 17.0039 62.9915 16.9431 63.0759C16.9022 63.1394 16.7909 63.2138 16.6084 63.2982C14.8033 63.997 12.9478 64.3464 11.0419 64.3464C8.56758 64.3464 6.49915 63.8382 4.83654 62.8218C3.17394 61.7845 1.94678 60.4823 1.1559 58.9151C0.385033 57.327 0 55.6754 0 53.9602C0 51.9483 0.517127 50.1697 1.55135 48.6242C2.60559 47.0787 3.99522 45.8818 5.71867 45.0351C7.46292 44.1884 9.32803 43.7646 11.3156 43.7646ZM23.0555 54.0555C23.0147 54.6063 22.9947 55.061 22.9947 55.4213C22.9947 57.7717 23.491 59.6456 24.4852 61.0431C25.4786 62.4407 26.8779 63.1394 28.683 63.1394C29.1897 63.1394 29.7068 63.065 30.2343 62.9171C30.761 62.7691 31.2277 62.5468 31.6335 62.2501H31.664C31.7248 62.2501 31.7752 62.2927 31.8161 62.3771C31.8769 62.4407 31.8865 62.5042 31.8464 62.5677C30.4264 63.7538 28.8654 64.3464 27.162 64.3464C25.5803 64.3464 24.2314 63.997 23.1164 63.2982C22.0213 62.5786 21.1896 61.6466 20.6221 60.5032C20.0537 59.3597 19.7703 58.121 19.7703 56.787C19.7703 55.326 20.1145 53.992 20.8046 52.785C21.4938 51.5572 22.4264 50.5934 23.6031 49.8947C24.779 49.175 26.0565 48.8148 27.4358 48.8148C28.9359 48.8148 30.0822 49.2277 30.8731 50.0535C31.6639 50.8793 32.0594 51.9592 32.0594 53.2932C32.0594 53.5682 32.029 53.7588 31.9681 53.8649C31.9273 53.9711 31.836 54.0237 31.6943 54.0237L23.0555 54.0555ZM26.4016 49.5771C25.5498 49.5771 24.8398 49.9156 24.2723 50.5935C23.7248 51.2713 23.3493 52.2133 23.1468 53.4203L28.8046 53.325C28.7638 50.8266 27.9625 49.5771 26.4016 49.5771ZM38.3904 61.2655C38.3904 61.8372 38.4408 62.261 38.5425 62.5359C38.6433 62.8109 38.8363 63.0124 39.1205 63.1394C39.4247 63.2456 39.8705 63.2982 40.4589 63.2982H40.7934C41.9493 63.2982 43.0036 62.9062 43.957 62.123C44.9096 61.3399 45.6092 60.2808 46.0559 58.9468C46.0759 58.9042 46.1367 58.8942 46.2383 58.9151C46.36 58.9151 46.4209 58.936 46.4209 58.9786C46.2784 60.1011 46.208 61.604 46.208 63.4888C46.208 63.6585 46.1671 63.7855 46.0863 63.8699C46.0254 63.9335 45.9037 63.9652 45.7212 63.9652H33.5539C33.513 63.9652 33.493 63.9017 33.493 63.7747C33.493 63.6476 33.513 63.5841 33.5539 63.5841C34.0806 63.5841 34.4664 63.5314 34.7098 63.4253C34.9531 63.3191 35.1148 63.1185 35.1965 62.8218C35.2973 62.5042 35.3486 62.0277 35.3486 61.3925V51.6734C35.3486 51.0381 35.2973 50.5726 35.1965 50.2758C35.1148 49.9791 34.9531 49.7785 34.7098 49.6724C34.4664 49.5453 34.0806 49.4818 33.5539 49.4818C33.513 49.4818 33.493 49.4183 33.493 49.2912C33.493 49.1642 33.513 49.1006 33.5539 49.1006L35.0444 49.1324C35.8961 49.175 36.5549 49.1959 37.0216 49.1959C37.5483 49.1959 38.2383 49.175 39.09 49.1324L40.4893 49.1006C40.5501 49.1006 40.5805 49.1642 40.5805 49.2912C40.5805 49.4183 40.5501 49.4818 40.4893 49.4818C39.8809 49.4818 39.4247 49.5453 39.1205 49.6724C38.8363 49.7785 38.6433 49.99 38.5425 50.3076C38.4408 50.6043 38.3904 51.0699 38.3904 51.7051V61.2655ZM51.0677 54.0555C51.0269 54.6063 51.0069 55.061 51.0069 55.4213C51.0069 57.7717 51.504 59.6456 52.4974 61.0431C53.4908 62.4407 54.89 63.1394 56.6951 63.1394C57.2018 63.1394 57.7189 63.065 58.2464 62.9171C58.774 62.7691 59.2398 62.5468 59.6457 62.2501H59.6761C59.7369 62.2501 59.7873 62.2927 59.8281 62.3771C59.889 62.4407 59.8994 62.5042 59.8586 62.5677C58.4393 63.7538 56.8776 64.3464 55.1742 64.3464C53.5924 64.3464 52.2436 63.997 51.1285 63.2982C50.0334 62.5786 49.2017 61.6466 48.6342 60.5032C48.0666 59.3597 47.7825 58.121 47.7825 56.787C47.7825 55.326 48.1275 53.992 48.8167 52.785C49.5059 51.5572 50.4393 50.5934 51.6152 49.8947C52.7911 49.175 54.0687 48.8148 55.4479 48.8148C56.9488 48.8148 58.0943 49.2277 58.8852 50.0535C59.6761 50.8793 60.0715 51.9592 60.0715 53.2932C60.0715 53.5682 60.0411 53.7588 59.9802 53.8649C59.9394 53.9711 59.8482 54.0237 59.7065 54.0237L51.0677 54.0555ZM54.4137 49.5771C53.562 49.5771 52.852 49.9156 52.2844 50.5935C51.7369 51.2713 51.3615 52.2133 51.1589 53.4203L56.8168 53.325C56.7759 50.8266 55.9754 49.5771 54.4137 49.5771ZM70.5395 55.7389C72.1212 55.8233 73.3171 56.1836 74.1288 56.8188C74.9597 57.454 75.376 58.3325 75.376 59.455C75.376 60.3653 75.1222 61.1702 74.6155 61.8689C74.108 62.5677 73.3988 63.1185 72.4862 63.5206C71.5937 63.9017 70.5699 64.0923 69.414 64.0923C68.8664 64.0923 68.2068 64.0605 67.4368 63.997C67.1526 63.9761 66.798 63.9544 66.3721 63.9335C65.9663 63.9126 65.5204 63.9017 65.0337 63.9017L63.087 63.9335C62.7219 63.9544 62.2144 63.9652 61.566 63.9652C61.5252 63.9652 61.5052 63.9017 61.5052 63.7747C61.5052 63.6476 61.5252 63.5841 61.566 63.5841C62.1744 63.5841 62.6098 63.5314 62.874 63.4253C63.1573 63.3191 63.3399 63.1185 63.4215 62.8218C63.5224 62.5042 63.5736 62.0277 63.5736 61.3925V51.6734C63.5736 51.0381 63.5224 50.5726 63.4215 50.2758C63.3399 49.9791 63.1573 49.7785 62.874 49.6724C62.6098 49.5453 62.1944 49.4818 61.6269 49.4818C61.566 49.4818 61.5356 49.4183 61.5356 49.2912C61.5356 49.1642 61.566 49.1006 61.6269 49.1006L63.087 49.1324C63.8978 49.175 64.547 49.1959 65.0337 49.1959C65.6421 49.1959 66.2809 49.1642 66.9501 49.1006C67.1726 49.0797 67.5072 49.058 67.9539 49.0371C68.3997 49.0162 68.7848 49.0053 69.1098 49.0053C70.6099 49.0053 71.7762 49.2703 72.6079 49.7994C73.4596 50.3285 73.8855 51.0908 73.8855 52.0863C73.8855 52.8912 73.6013 53.6 73.0337 54.2143C72.4654 54.8287 71.6345 55.3368 70.5395 55.7389ZM68.3493 49.4183C67.8626 49.4183 67.4976 49.4818 67.2543 49.6088C67.0109 49.715 66.838 49.9373 66.7372 50.2758C66.6355 50.5935 66.5851 51.0807 66.5851 51.7369V55.6754C66.9293 55.6963 67.3855 55.7071 67.9539 55.7071C68.6839 55.7071 69.2411 55.6436 69.6269 55.5165C70.0319 55.3686 70.3361 55.0928 70.5395 54.6907C70.742 54.267 70.8436 53.6635 70.8436 52.8803C70.8436 50.5726 70.0119 49.4183 68.3493 49.4183ZM68.8664 63.5841C71.0766 63.5841 72.1821 62.4615 72.1821 60.2173C72.1821 57.6337 70.6507 56.3424 67.5889 56.3424C67.1422 56.3424 66.8076 56.3532 66.5851 56.3741V61.3925C66.5851 62.1974 66.7372 62.7691 67.0414 63.1077C67.3455 63.4253 67.9539 63.5841 68.8664 63.5841ZM93.8519 63.5841C93.9128 63.5841 93.9432 63.6476 93.9432 63.7747C93.9432 63.9017 93.9128 63.9652 93.8519 63.9652H88.8633C88.5591 63.9652 88.0116 63.33 87.2207 62.0595C86.4499 60.789 85.5269 59.0421 84.4527 56.8188C84.0268 56.8823 83.6009 56.9141 83.1751 56.9141H82.658V61.3925C82.658 62.0486 82.698 62.5251 82.7796 62.8218C82.8805 63.1185 83.0534 63.3191 83.2967 63.4253C83.5601 63.5314 83.9756 63.5841 84.5439 63.5841C84.5839 63.5841 84.6048 63.6476 84.6048 63.7747C84.6048 63.9017 84.5839 63.9652 84.5439 63.9652C83.9356 63.9652 83.4585 63.9544 83.1142 63.9335L81.0458 63.9017L79.0686 63.9335C78.7036 63.9544 78.1961 63.9652 77.5477 63.9652C77.5069 63.9652 77.4868 63.9017 77.4868 63.7747C77.4868 63.6476 77.5069 63.5841 77.5477 63.5841C78.1152 63.5841 78.5307 63.5314 78.7948 63.4253C79.0582 63.3191 79.2407 63.1185 79.3423 62.8218C79.4432 62.5042 79.4944 62.0277 79.4944 61.3925V51.6734C79.4944 51.0381 79.4432 50.5726 79.3423 50.2758C79.2607 49.9791 79.0886 49.7785 78.8252 49.6724C78.5611 49.5453 78.1561 49.4818 77.6085 49.4818C77.5477 49.4818 77.5173 49.4183 77.5173 49.2912C77.5173 49.1642 77.5477 49.1006 77.6085 49.1006L79.099 49.1324C79.9099 49.175 80.5591 49.1959 81.0458 49.1959C81.4308 49.1959 81.7854 49.1851 82.1104 49.1642C82.4346 49.1433 82.7188 49.1215 82.9622 49.1006C83.6314 49.0371 84.2597 49.0053 84.8481 49.0053C86.4299 49.0053 87.6362 49.2703 88.4679 49.7994C89.2988 50.3285 89.715 51.0908 89.715 52.0863C89.715 52.9121 89.4613 53.6743 88.9546 54.3731C88.4471 55.0719 87.7475 55.6436 86.8557 56.0883C87.9508 58.0149 88.8938 59.5185 89.6846 60.5984C90.4755 61.6784 91.1951 62.4515 91.8443 62.9171C92.4927 63.3618 93.1619 63.5841 93.8519 63.5841ZM82.658 56.2788C82.7996 56.2997 83.043 56.3106 83.388 56.3106C84.5439 56.3106 85.3444 56.0356 85.7911 55.4848C86.2369 54.9131 86.4603 54.0664 86.4603 52.9438C86.4603 50.7414 85.6894 49.6406 84.1485 49.6406C83.7226 49.6406 83.408 49.6933 83.2055 49.7994C83.0022 49.9056 82.8605 50.1061 82.7796 50.4029C82.698 50.6779 82.658 51.1225 82.658 51.7369V56.2788ZM107.932 62.0913C107.992 62.0913 108.032 62.1439 108.053 62.2501C108.093 62.3562 108.073 62.4198 107.992 62.4407L104.646 64.124C104.565 64.1667 104.474 64.1876 104.373 64.1876C103.987 64.1876 103.602 64.0179 103.217 63.6794C102.852 63.3408 102.568 62.8009 102.365 62.0595L100.54 63.1712C99.9316 63.5523 99.3841 63.8173 98.8974 63.9652C98.4307 64.1132 97.944 64.1876 97.4373 64.1876C96.6464 64.1876 95.9972 63.9652 95.4905 63.5206C94.983 63.0759 94.7301 62.5042 94.7301 61.8054C94.7301 61.1493 94.9326 60.5776 95.3384 60.0903C95.7643 59.5821 96.3518 59.1901 97.1027 58.9151L102.152 57.0411V53.2615C102.152 51.9701 102.02 51.0273 101.757 50.4347C101.513 49.842 101.108 49.5453 100.54 49.5453C99.8908 49.5453 99.3841 49.8521 99.0191 50.4664C98.654 51.0808 98.3699 51.8639 98.1673 52.8168C97.944 54.0028 97.3557 54.5955 96.4031 54.5955C95.8956 54.5955 95.4905 54.4684 95.1863 54.2143C94.9022 53.9393 94.7605 53.5582 94.7605 53.0709C94.7605 52.4356 95.1351 51.7896 95.886 51.1334C96.656 50.4555 97.5894 49.9056 98.6844 49.4818C99.7795 49.0371 100.783 48.8148 101.696 48.8148C102.77 48.8148 103.622 49.1115 104.251 49.7041C104.879 50.2758 105.194 51.1443 105.194 52.3086V59.0739C105.194 60.0268 105.275 60.7364 105.437 61.2019C105.599 61.6675 105.802 61.9642 106.046 62.0913C106.309 62.2183 106.644 62.2818 107.05 62.2818C107.252 62.2818 107.526 62.2292 107.871 62.123L107.932 62.0913ZM102.243 61.4243C102.183 61.0431 102.152 60.6194 102.152 60.1538V57.7081L99.5362 58.7245C98.5628 59.1057 98.0761 59.7835 98.0761 60.7573C98.0761 61.329 98.2074 61.7845 98.4715 62.123C98.7349 62.4407 99.0895 62.5995 99.5362 62.5995C99.8604 62.5995 100.306 62.4515 100.875 62.1548L102.243 61.4243ZM118.896 62.123C118.977 62.123 119.027 62.1657 119.048 62.2501C119.088 62.3345 119.078 62.398 119.018 62.4407C118.186 63.1394 117.436 63.6368 116.767 63.9335C116.117 64.2085 115.387 64.3464 114.576 64.3464C113.36 64.3464 112.335 64.0078 111.504 63.33C110.673 62.6521 110.257 61.5304 110.257 59.9632V51.6416C110.257 51.0699 110.135 50.6887 109.892 50.4982C109.669 50.3076 109.243 50.2123 108.614 50.2123C108.554 50.2123 108.523 50.117 108.523 49.9265C108.523 49.7359 108.554 49.6406 108.614 49.6406C109.649 49.6406 110.551 49.4074 111.322 48.9418C112.092 48.4763 112.589 47.8619 112.812 47.0996C112.852 47.0361 112.913 47.0044 112.995 47.0044C113.076 47.0044 113.147 47.0252 113.208 47.0679C113.268 47.0888 113.299 47.1205 113.299 47.1632V49.4818C114.698 49.4609 116.33 49.3656 118.196 49.1959C118.257 49.1959 118.308 49.2703 118.348 49.4183C118.388 49.5662 118.409 49.7467 118.409 49.9582C118.409 50.1697 118.368 50.382 118.288 50.5935C118.227 50.784 118.166 50.8684 118.105 50.8475C117.152 50.5935 115.55 50.4238 113.299 50.3394V59.2327C113.299 61.7528 114.191 63.0124 115.976 63.0124C117.071 63.0124 118.023 62.7265 118.835 62.1548L118.896 62.123ZM125.614 61.3925C125.614 62.0277 125.666 62.5042 125.766 62.8218C125.868 63.1185 126.051 63.3191 126.314 63.4253C126.578 63.5314 127.004 63.5841 127.592 63.5841C127.632 63.5841 127.652 63.6476 127.652 63.7747C127.652 63.9017 127.632 63.9652 127.592 63.9652C126.963 63.9652 126.476 63.9544 126.131 63.9335L124.063 63.9017L122.086 63.9335C121.721 63.9544 121.214 63.9652 120.565 63.9652C120.525 63.9652 120.504 63.9017 120.504 63.7747C120.504 63.6476 120.525 63.5841 120.565 63.5841C121.153 63.5841 121.579 63.5314 121.842 63.4253C122.127 63.3191 122.32 63.1185 122.42 62.8218C122.522 62.5042 122.572 62.0277 122.572 61.3925V51.6734C122.572 51.0381 122.522 50.5726 122.42 50.2758C122.32 49.9791 122.127 49.7785 121.842 49.6724C121.579 49.5453 121.153 49.4818 120.565 49.4818C120.525 49.4818 120.504 49.4183 120.504 49.2912C120.504 49.1642 120.525 49.1006 120.565 49.1006L122.086 49.1324C122.897 49.175 123.556 49.1959 124.063 49.1959C124.61 49.1959 125.31 49.175 126.162 49.1324L127.592 49.1006C127.632 49.1006 127.652 49.1642 127.652 49.2912C127.652 49.4183 127.632 49.4818 127.592 49.4818C127.024 49.4818 126.598 49.5453 126.314 49.6724C126.051 49.7994 125.868 50.0217 125.766 50.3394C125.666 50.6361 125.614 51.1016 125.614 51.7369V61.3925ZM145.835 63.5841C145.875 63.5841 145.895 63.6476 145.895 63.7747C145.895 63.9017 145.875 63.9652 145.835 63.9652C145.328 63.9652 144.932 63.9544 144.648 63.9335L143.066 63.9017L141.241 63.9335C140.937 63.9544 140.531 63.9652 140.025 63.9652C139.984 63.9652 139.964 63.9017 139.964 63.7747C139.964 63.6476 139.984 63.5841 140.025 63.5841C140.491 63.5841 140.836 63.5206 141.059 63.3935C141.282 63.2665 141.434 63.055 141.515 62.7583C141.596 62.4407 141.637 61.9642 141.637 61.329V55.0084C141.637 53.0182 141.353 51.6525 140.785 50.9111C140.238 50.1488 139.477 49.7676 138.504 49.7676C137.693 49.7676 136.932 49.9791 136.222 50.4029C135.533 50.8266 134.884 51.5145 134.276 52.4674V61.329C134.276 61.9642 134.306 62.4407 134.367 62.7583C134.448 63.055 134.59 63.2665 134.793 63.3935C135.016 63.5206 135.351 63.5841 135.796 63.5841C135.837 63.5841 135.857 63.6476 135.857 63.7747C135.857 63.9017 135.837 63.9652 135.796 63.9652C135.208 63.9652 134.742 63.9544 134.397 63.9335L132.633 63.9017L130.96 63.9335C130.636 63.9544 130.179 63.9652 129.591 63.9652C129.55 63.9652 129.53 63.9017 129.53 63.7747C129.53 63.6476 129.55 63.5841 129.591 63.5841C130.058 63.5841 130.402 63.5314 130.625 63.4253C130.869 63.3191 131.031 63.1185 131.112 62.8218C131.193 62.5042 131.234 62.0277 131.234 61.3925V51.6734C131.234 51.0381 131.193 50.5726 131.112 50.2758C131.031 49.9791 130.879 49.7785 130.656 49.6724C130.453 49.5453 130.128 49.4818 129.682 49.4818C129.622 49.4818 129.591 49.4183 129.591 49.2912C129.591 49.1642 129.622 49.1006 129.682 49.1006L131.66 49.1324L133.698 49.1006C133.941 49.1006 134.093 49.1433 134.154 49.2277C134.235 49.2912 134.276 49.45 134.276 49.7041V51.451C135.046 50.5191 135.877 49.8312 136.77 49.3865C137.662 48.9418 138.645 48.7195 139.72 48.7195C141.14 48.7195 142.316 49.1433 143.249 49.99C144.182 50.8158 144.648 52.2451 144.648 54.2778V61.3925C144.648 62.0277 144.679 62.5042 144.739 62.8218C144.8 63.1185 144.912 63.3191 145.074 63.4253C145.237 63.5314 145.49 63.5841 145.835 63.5841ZM155.562 64.3464C153.939 64.3464 152.52 63.997 151.303 63.2982C150.107 62.5786 149.194 61.6358 148.566 60.4714C147.937 59.3071 147.623 58.0784 147.623 56.787C147.623 55.1354 147.977 53.7061 148.687 52.4992C149.418 51.2713 150.441 50.3393 151.76 49.7041C153.077 49.048 154.629 48.7195 156.414 48.7195C157.305 48.7195 158.157 48.8039 158.969 48.9736C159.8 49.1433 160.49 49.3865 161.037 49.7041C161.179 49.7676 161.26 49.842 161.281 49.9265C161.321 50.0109 161.351 50.1697 161.372 50.4029L161.524 53.3885C161.524 53.452 161.463 53.4946 161.342 53.5155C161.24 53.5155 161.179 53.4838 161.159 53.4203C159.597 50.7523 157.783 49.4183 155.714 49.4183C154.274 49.4183 153.138 50.0217 152.307 51.2287C151.496 52.4356 151.091 54.1508 151.091 56.3741C151.091 58.5339 151.556 60.2808 152.49 61.6148C153.422 62.9488 154.689 63.6159 156.292 63.6159C157.103 63.6159 157.691 63.5314 158.056 63.3618C158.441 63.1712 158.695 62.8327 158.817 62.3454C158.958 61.8372 159.03 61.0431 159.03 59.9632C159.03 59.4124 158.989 59.0313 158.908 58.8198C158.826 58.5866 158.654 58.4387 158.391 58.3751C158.127 58.2907 157.67 58.2481 157.022 58.2481C156.9 58.2481 156.84 58.1636 156.84 57.994C156.84 57.9304 156.849 57.8778 156.87 57.8352C156.91 57.7716 156.951 57.7399 156.992 57.7399C158.046 57.8243 159.111 57.8669 160.186 57.8669C160.672 57.8669 161.483 57.846 162.619 57.8034C162.659 57.8034 162.69 57.8352 162.71 57.8987C162.75 57.9413 162.771 57.9831 162.771 58.0258C162.771 58.1737 162.72 58.2481 162.619 58.2481C162.315 58.2272 162.102 58.2589 161.98 58.3434C161.859 58.4278 161.777 58.6083 161.737 58.8833C161.696 59.1374 161.676 59.603 161.676 60.2808C161.676 61.2337 161.696 61.9007 161.737 62.2818C161.798 62.663 161.828 62.928 161.828 63.0759C161.828 63.2029 161.807 63.2874 161.767 63.33C161.727 63.3509 161.625 63.3935 161.463 63.457C160.104 64.0496 158.137 64.3464 155.562 64.3464ZM184.068 62.4407C184.15 62.4407 184.19 62.6312 184.19 63.0124C184.19 63.2238 184.17 63.4361 184.129 63.6476C184.089 63.8382 184.048 63.9335 184.007 63.9335L182 63.8382V68.2531C182 68.4646 181.919 68.6133 181.756 68.6978L179.384 69.9365C179.262 69.9791 179.201 70 179.201 70C179.14 70 179.11 69.9156 179.11 69.7459V63.7747C177.711 63.732 175.095 63.7112 171.262 63.7112C171.161 63.7112 171.09 63.6685 171.049 63.5841C171.009 63.4997 171.009 63.4144 171.049 63.33L181.543 48.783C181.584 48.7195 181.645 48.6877 181.726 48.6877C181.787 48.6877 181.847 48.7086 181.908 48.7513C181.969 48.7939 182 48.8465 182 48.9101V62.5042C182.405 62.5042 183.095 62.4833 184.068 62.4407ZM173.087 62.6312C174.831 62.6312 176.839 62.6103 179.11 62.5677V53.8967L172.935 62.4089C172.854 62.5568 172.905 62.6312 173.087 62.6312ZM193.573 64.3781C192.174 64.3781 190.927 64.0497 189.832 63.3935C188.736 62.7157 187.875 61.7845 187.246 60.5984C186.638 59.3915 186.333 58.0149 186.333 56.4694C186.333 54.9657 186.638 53.6317 187.246 52.4674C187.875 51.3031 188.736 50.4029 189.832 49.7676C190.947 49.1115 192.204 48.783 193.603 48.783C194.983 48.783 196.21 49.1115 197.284 49.7676C198.379 50.4238 199.221 51.3449 199.809 52.5309C200.417 53.6953 200.721 55.0401 200.721 56.5647C200.721 58.0893 200.417 59.4442 199.809 60.6302C199.2 61.8163 198.349 62.7374 197.254 63.3935C196.179 64.0497 194.952 64.3781 193.573 64.3781ZM193.938 63.7112C195.013 63.7112 195.814 63.1077 196.341 61.9007C196.869 60.6937 197.132 59.0421 197.132 56.9458C197.132 55.2942 196.949 53.9076 196.584 52.785C196.24 51.6625 195.773 50.8267 195.185 50.2758C194.618 49.725 193.979 49.45 193.269 49.45C192.195 49.45 191.352 50.0744 190.744 51.324C190.136 52.5736 189.832 54.2143 189.832 56.2471C189.832 57.6872 189.994 58.9786 190.318 60.122C190.663 61.2446 191.14 62.123 191.748 62.7583C192.377 63.3935 193.107 63.7112 193.938 63.7112ZM224.669 49.1006C224.709 49.1006 224.729 49.1642 224.729 49.2912C224.729 49.4183 224.709 49.4818 224.669 49.4818C224.06 49.4818 223.502 49.7359 222.996 50.2441C222.509 50.7523 222.123 51.451 221.84 52.3404L217.551 63.9335C217.064 65.331 216.456 66.5697 215.726 67.6496C214.996 68.7295 214.235 69.4809 213.444 69.9047C213.323 69.9891 213.11 69.9047 212.805 69.6506C212.521 69.4174 212.288 69.1215 212.106 68.7613C211.902 68.274 211.802 67.8293 211.802 67.4273C211.802 67.067 211.882 66.8664 212.045 66.8238C213.18 66.6541 214.144 66.3474 214.935 65.9027C215.746 65.4789 216.384 64.8119 216.851 63.9017L211.254 51.7369C210.848 50.8475 210.494 50.2549 210.189 49.9582C209.885 49.6406 209.469 49.4818 208.942 49.4818C208.881 49.4818 208.851 49.4183 208.851 49.2912C208.851 49.1642 208.881 49.1006 208.942 49.1006L210.281 49.1324C211.051 49.175 211.791 49.1959 212.501 49.1959C213.008 49.1959 213.647 49.175 214.418 49.1324L215.756 49.1006C215.817 49.1006 215.847 49.1642 215.847 49.2912C215.847 49.4183 215.817 49.4818 215.756 49.4818C214.701 49.4818 214.174 49.7994 214.174 50.4347C214.174 50.7096 214.266 51.0381 214.448 51.4193L218.342 59.6774L221.018 52.1498C221.18 51.6842 221.262 51.2814 221.262 50.9428C221.262 49.9691 220.633 49.4818 219.376 49.4818C219.315 49.4818 219.285 49.4183 219.285 49.2912C219.285 49.1642 219.315 49.1006 219.376 49.1006L220.44 49.1324C221.089 49.175 221.728 49.1959 222.357 49.1959C222.701 49.1959 223.096 49.175 223.543 49.1324L224.669 49.1006ZM228.706 54.0555C228.665 54.6063 228.645 55.061 228.645 55.4213C228.645 57.7717 229.142 59.6456 230.136 61.0431C231.129 62.4407 232.529 63.1394 234.334 63.1394C234.84 63.1394 235.357 63.065 235.885 62.9171C236.413 62.7691 236.878 62.5468 237.284 62.2501H237.315C237.375 62.2501 237.426 62.2927 237.467 62.3771C237.528 62.4407 237.538 62.5042 237.497 62.5677C236.078 63.7538 234.516 64.3464 232.813 64.3464C231.231 64.3464 229.882 63.997 228.767 63.2982C227.672 62.5786 226.84 61.6466 226.273 60.5032C225.705 59.3597 225.421 58.121 225.421 56.787C225.421 55.326 225.766 53.992 226.455 52.785C227.144 51.5572 228.078 50.5934 229.254 49.8947C230.43 49.175 231.707 48.8148 233.086 48.8148C234.587 48.8148 235.733 49.2277 236.524 50.0535C237.315 50.8793 237.71 51.9592 237.71 53.2932C237.71 53.5682 237.68 53.7588 237.619 53.8649C237.578 53.9711 237.487 54.0237 237.345 54.0237L228.706 54.0555ZM232.052 49.5771C231.201 49.5771 230.491 49.9156 229.923 50.5935C229.375 51.2713 229 52.2133 228.798 53.4203L234.455 53.325C234.414 50.8266 233.614 49.5771 232.052 49.5771ZM253.488 62.0913C253.549 62.0913 253.589 62.1439 253.61 62.2501C253.65 62.3562 253.63 62.4198 253.549 62.4407L250.203 64.124C250.122 64.1667 250.03 64.1876 249.929 64.1876C249.544 64.1876 249.159 64.0179 248.774 63.6794C248.408 63.3408 248.124 62.8009 247.922 62.0595L246.097 63.1712C245.488 63.5523 244.941 63.8173 244.454 63.9652C243.987 64.1132 243.501 64.1876 242.994 64.1876C242.203 64.1876 241.554 63.9652 241.047 63.5206C240.54 63.0759 240.287 62.5042 240.287 61.8054C240.287 61.1493 240.489 60.5776 240.895 60.0903C241.321 59.5821 241.909 59.1901 242.659 58.9151L247.709 57.0411V53.2615C247.709 51.9701 247.577 51.0273 247.313 50.4347C247.07 49.842 246.664 49.5453 246.097 49.5453C245.448 49.5453 244.941 49.8521 244.576 50.4664C244.211 51.0808 243.927 51.8639 243.724 52.8168C243.501 54.0028 242.912 54.5955 241.96 54.5955C241.452 54.5955 241.047 54.4684 240.743 54.2143C240.459 53.9393 240.317 53.5582 240.317 53.0709C240.317 52.4356 240.692 51.7896 241.443 51.1334C242.213 50.4555 243.146 49.9056 244.241 49.4818C245.336 49.0371 246.34 48.8148 247.253 48.8148C248.327 48.8148 249.179 49.1115 249.808 49.7041C250.436 50.2758 250.751 51.1443 250.751 52.3086V59.0739C250.751 60.0268 250.832 60.7364 250.994 61.2019C251.156 61.6675 251.359 61.9642 251.602 62.0913C251.866 62.2183 252.2 62.2818 252.606 62.2818C252.809 62.2818 253.083 62.2292 253.428 62.123L253.488 62.0913ZM247.8 61.4243C247.739 61.0431 247.709 60.6194 247.709 60.1538V57.7081L245.093 58.7245C244.12 59.1057 243.633 59.7835 243.633 60.7573C243.633 61.329 243.764 61.7845 244.028 62.123C244.292 62.4407 244.646 62.5995 245.093 62.5995C245.417 62.5995 245.863 62.4515 246.431 62.1548L247.8 61.4243ZM270.688 63.5841C270.749 63.5841 270.78 63.6476 270.78 63.7747C270.78 63.9017 270.749 63.9652 270.688 63.9652H265.7C265.396 63.9652 264.848 63.33 264.057 62.0595C263.286 60.789 262.363 59.0421 261.289 56.8188C260.863 56.8823 260.437 56.9141 260.012 56.9141H259.494V61.3925C259.494 62.0486 259.534 62.5251 259.616 62.8218C259.717 63.1185 259.89 63.3191 260.133 63.4253C260.397 63.5314 260.812 63.5841 261.38 63.5841C261.42 63.5841 261.441 63.6476 261.441 63.7747C261.441 63.9017 261.42 63.9652 261.38 63.9652C260.772 63.9652 260.295 63.9544 259.951 63.9335L257.882 63.9017L255.905 63.9335C255.54 63.9544 255.033 63.9652 254.384 63.9652C254.343 63.9652 254.323 63.9017 254.323 63.7747C254.323 63.6476 254.343 63.5841 254.384 63.5841C254.952 63.5841 255.367 63.5314 255.631 63.4253C255.895 63.3191 256.077 63.1185 256.179 62.8218C256.28 62.5042 256.331 62.0277 256.331 61.3925V51.6734C256.331 51.0381 256.28 50.5726 256.179 50.2758C256.097 49.9791 255.925 49.7785 255.662 49.6724C255.398 49.5453 254.993 49.4818 254.445 49.4818C254.384 49.4818 254.354 49.4183 254.354 49.2912C254.354 49.1642 254.384 49.1006 254.445 49.1006L255.935 49.1324C256.746 49.175 257.396 49.1959 257.882 49.1959C258.267 49.1959 258.622 49.1851 258.947 49.1642C259.271 49.1433 259.555 49.1215 259.799 49.1006C260.468 49.0371 261.096 49.0053 261.685 49.0053C263.266 49.0053 264.473 49.2703 265.304 49.7994C266.135 50.3285 266.552 51.0908 266.552 52.0863C266.552 52.9121 266.298 53.6743 265.791 54.3731C265.284 55.0719 264.584 55.6436 263.692 56.0883C264.787 58.0149 265.73 59.5185 266.521 60.5984C267.312 61.6784 268.032 62.4515 268.681 62.9171C269.329 63.3618 269.998 63.5841 270.688 63.5841ZM259.494 56.2788C259.636 56.2997 259.879 56.3106 260.224 56.3106C261.38 56.3106 262.181 56.0356 262.628 55.4848C263.073 54.9131 263.297 54.0664 263.297 52.9438C263.297 50.7414 262.526 49.6406 260.985 49.6406C260.559 49.6406 260.244 49.6933 260.042 49.7994C259.839 49.9056 259.697 50.1061 259.616 50.4029C259.534 50.6779 259.494 51.1225 259.494 51.7369V56.2788ZM274.456 51.451C274.456 52.0436 274.608 52.5627 274.913 53.0074C275.237 53.4311 275.623 53.8014 276.068 54.119C276.535 54.4157 277.164 54.7752 277.954 55.1989C278.867 55.7071 279.577 56.1409 280.084 56.5012C280.611 56.8397 281.057 57.2843 281.422 57.8352C281.807 58.386 282 59.0421 282 59.8044C282 60.6511 281.757 61.4243 281.27 62.123C280.803 62.8009 280.155 63.3409 279.323 63.7429C278.492 64.1449 277.559 64.3464 276.525 64.3464C275.592 64.3464 274.68 64.2193 273.787 63.9652C272.915 63.732 272.307 63.4679 271.962 63.1712C271.8 63.065 271.719 62.8427 271.719 62.5042L271.567 58.9151C271.567 58.8307 271.617 58.7772 271.719 58.7563C271.82 58.7354 271.891 58.7671 271.932 58.8515C272.702 60.2491 273.483 61.3925 274.274 62.2818C275.065 63.1712 275.967 63.6159 276.981 63.6159C277.589 63.6159 278.096 63.4253 278.502 63.0441C278.908 62.663 279.11 62.0913 279.11 61.329C279.11 60.6511 278.938 60.0585 278.593 59.5503C278.269 59.0421 277.863 58.6184 277.376 58.2798C276.89 57.9196 276.241 57.5067 275.43 57.0411C274.233 56.3633 273.32 55.728 272.692 55.1354C272.064 54.5211 271.749 53.727 271.749 52.7533C271.749 51.5254 272.266 50.5508 273.3 49.8312C274.335 49.0898 275.582 48.7195 277.042 48.7195C277.691 48.7195 278.37 48.7939 279.08 48.9418C279.79 49.0898 280.357 49.2595 280.783 49.45C280.966 49.5135 281.087 49.598 281.148 49.7041C281.209 49.7885 281.24 49.9156 281.24 50.0853V53.1026C281.24 53.1662 281.189 53.2188 281.087 53.2615C280.986 53.2824 280.915 53.2615 280.875 53.1979C280.49 52.3512 279.952 51.5145 279.262 50.6887C278.573 49.8629 277.661 49.45 276.525 49.45C275.836 49.45 275.318 49.6406 274.973 50.0217C274.628 50.382 274.456 50.8584 274.456 51.451Z" fill="white"/>
</svg>
